<svg xmlns="http://www.w3.org/2000/svg" xmlns:xlink="http://www.w3.org/1999/xlink" aria-hidden="true" role="img" class="iconify iconify--icon-park-outline" width="32" height="32" preserveAspectRatio="xMidYMid meet" viewBox="0 0 48 48"><g fill="none" clip-rule="evenodd" stroke="#fff" stroke-width="4" stroke-linecap="round" stroke-linejoin="round"><path d="M24 45c3.22 0 8.727-4.2 8.727-21S27.221 3 24 3c-3.22 0-8.727 4.483-8.727 21S20.78 45 24 45z"></path><path d="M5.105 35c1.61 2.812 8.143 5.421 23.259-3.379S44.505 15.812 42.895 13c-1.61-2.812-8.397-5.273-23.259 3.379C4.777 25.031 3.496 32.188 5.106 35z"></path><path d="M5.105 13c-1.61 2.812-.585 9.821 14.531 18.621c15.116 8.8 21.649 6.191 23.26 3.379c1.61-2.812.33-9.97-14.532-18.621C13.502 7.727 6.715 10.188 5.104 13z"></path></g></svg>