<?xml version="1.0" encoding="UTF-8"?><svg id="_層_2" xmlns="http://www.w3.org/2000/svg" viewBox="0 0 1837.2 1001.05"><defs><style>.cls-1,.cls-2{fill:none;}.cls-3{fill:#05141f;}.cls-4{fill:#202e38;}.cls-2{stroke:#05141f;stroke-miterlimit:10;}</style></defs><g id="_層_1-2"><g><polygon class="cls-3" points="30.71 894.9 30.71 889.36 35.52 892.13 40.32 894.9 35.52 897.68 30.71 900.45 30.71 894.9"/><polygon class="cls-3" points="30.71 918.72 30.71 913.17 35.52 915.94 40.32 918.72 35.52 921.49 30.71 924.27 30.71 918.72"/><polygon class="cls-3" points="30.71 942.53 30.71 936.98 35.52 939.76 40.32 942.53 35.52 945.31 30.71 948.08 30.71 942.53"/><polygon class="cls-3" points="30.71 966.35 30.71 960.8 35.52 963.57 40.32 966.35 35.52 969.12 30.71 971.89 30.71 966.35"/></g><g><g><path class="cls-3" d="M42.85,34.9c2.52,0,2.53-3.92,0-3.92s-2.53,3.92,0,3.92h0Z"/><path class="cls-3" d="M54.3,34.9c2.52,0,2.53-3.92,0-3.92s-2.53,3.92,0,3.92h0Z"/><path class="cls-3" d="M65.76,34.9c2.52,0,2.53-3.92,0-3.92s-2.53,3.92,0,3.92h0Z"/><path class="cls-3" d="M76.9,34.9c2.52,0,2.53-3.92,0-3.92s-2.53,3.92,0,3.92h0Z"/><path class="cls-3" d="M88.35,34.9c2.52,0,2.53-3.92,0-3.92s-2.53,3.92,0,3.92h0Z"/><path class="cls-3" d="M99.5,34.9c2.52,0,2.53-3.92,0-3.92s-2.53,3.92,0,3.92h0Z"/><path class="cls-3" d="M110.33,34.9c2.52,0,2.53-3.92,0-3.92s-2.53,3.92,0,3.92h0Z"/></g><g><path class="cls-3" d="M42.85,48.05c2.52,0,2.53-3.92,0-3.92s-2.53,3.92,0,3.92h0Z"/><path class="cls-3" d="M54.3,48.05c2.52,0,2.53-3.92,0-3.92s-2.53,3.92,0,3.92h0Z"/><path class="cls-3" d="M65.76,48.05c2.52,0,2.53-3.92,0-3.92s-2.53,3.92,0,3.92h0Z"/><path class="cls-3" d="M76.9,48.05c2.52,0,2.53-3.92,0-3.92s-2.53,3.92,0,3.92h0Z"/><path class="cls-3" d="M88.35,48.05c2.52,0,2.53-3.92,0-3.92s-2.53,3.92,0,3.92h0Z"/><path class="cls-3" d="M99.5,48.05c2.52,0,2.53-3.92,0-3.92s-2.53,3.92,0,3.92h0Z"/><path class="cls-3" d="M110.33,48.05c2.52,0,2.53-3.92,0-3.92s-2.53,3.92,0,3.92h0Z"/></g><g><path class="cls-3" d="M42.85,61.19c2.52,0,2.53-3.92,0-3.92s-2.53,3.92,0,3.92h0Z"/><path class="cls-3" d="M54.3,61.19c2.52,0,2.53-3.92,0-3.92s-2.53,3.92,0,3.92h0Z"/><path class="cls-3" d="M65.76,61.19c2.52,0,2.53-3.92,0-3.92s-2.53,3.92,0,3.92h0Z"/><path class="cls-3" d="M76.9,61.19c2.52,0,2.53-3.92,0-3.92s-2.53,3.92,0,3.92h0Z"/><path class="cls-3" d="M88.35,61.19c2.52,0,2.53-3.92,0-3.92s-2.53,3.92,0,3.92h0Z"/><path class="cls-3" d="M99.5,61.19c2.52,0,2.53-3.92,0-3.92s-2.53,3.92,0,3.92h0Z"/><path class="cls-3" d="M110.33,61.19c2.52,0,2.53-3.92,0-3.92s-2.53,3.92,0,3.92h0Z"/></g><g><path class="cls-3" d="M43.16,76.13c2.52,0,2.53-3.92,0-3.92s-2.53,3.92,0,3.92h0Z"/><path class="cls-3" d="M54.61,76.13c2.52,0,2.53-3.92,0-3.92s-2.53,3.92,0,3.92h0Z"/><path class="cls-3" d="M66.07,76.13c2.52,0,2.53-3.92,0-3.92s-2.53,3.92,0,3.92h0Z"/><path class="cls-3" d="M77.21,76.13c2.52,0,2.53-3.92,0-3.92s-2.53,3.92,0,3.92h0Z"/><path class="cls-3" d="M88.66,76.13c2.52,0,2.53-3.92,0-3.92s-2.53,3.92,0,3.92h0Z"/><path class="cls-3" d="M99.81,76.13c2.52,0,2.53-3.92,0-3.92s-2.53,3.92,0,3.92h0Z"/><path class="cls-3" d="M110.64,76.13c2.52,0,2.53-3.92,0-3.92s-2.53,3.92,0,3.92h0Z"/></g><g><path class="cls-3" d="M43.16,89.28c2.52,0,2.53-3.92,0-3.92s-2.53,3.92,0,3.92h0Z"/><path class="cls-3" d="M54.61,89.28c2.52,0,2.53-3.92,0-3.92s-2.53,3.92,0,3.92h0Z"/><path class="cls-3" d="M66.07,89.28c2.52,0,2.53-3.92,0-3.92s-2.53,3.92,0,3.92h0Z"/><path class="cls-3" d="M77.21,89.28c2.52,0,2.53-3.92,0-3.92s-2.53,3.92,0,3.92h0Z"/><path class="cls-3" d="M88.66,89.28c2.52,0,2.53-3.92,0-3.92s-2.53,3.92,0,3.92h0Z"/><path class="cls-3" d="M99.81,89.28c2.52,0,2.53-3.92,0-3.92s-2.53,3.92,0,3.92h0Z"/><path class="cls-3" d="M110.64,89.28c2.52,0,2.53-3.92,0-3.92s-2.53,3.92,0,3.92h0Z"/></g><g><path class="cls-3" d="M43.16,102.42c2.52,0,2.53-3.92,0-3.92s-2.53,3.92,0,3.92h0Z"/><path class="cls-3" d="M54.61,102.42c2.52,0,2.53-3.92,0-3.92s-2.53,3.92,0,3.92h0Z"/><path class="cls-3" d="M66.07,102.42c2.52,0,2.53-3.92,0-3.92s-2.53,3.92,0,3.92h0Z"/><path class="cls-3" d="M77.21,102.42c2.52,0,2.53-3.92,0-3.92s-2.53,3.92,0,3.92h0Z"/><path class="cls-3" d="M88.66,102.42c2.52,0,2.53-3.92,0-3.92s-2.53,3.92,0,3.92h0Z"/><path class="cls-3" d="M99.81,102.42c2.52,0,2.53-3.92,0-3.92s-2.53,3.92,0,3.92h0Z"/><path class="cls-3" d="M110.64,102.42c2.52,0,2.53-3.92,0-3.92s-2.53,3.92,0,3.92h0Z"/></g></g><path class="cls-3" d="M5.39,877.46v-72.42l-4.34-12.1v72.4c1.45,4.03,2.9,8.06,4.34,12.12Z"/><path class="cls-3" d="M5.39,904.15v-16.31c-1.44-4.06-2.89-8.12-4.34-12.17v16.54l4.34,11.94Z"/><path class="cls-3" d="M5.39,922.09v-7.67c-1.45-3.98-2.89-7.96-4.34-11.94v7.67l4.34,11.94Z"/><path class="cls-3" d="M1.05,920.43v38.38l4.34,17.39v-43.83l-4.34-11.94Z"/><polyline class="cls-2" points="492.21 .5 15.78 .5 15.78 972.58"/><rect class="cls-3" y="364.23" width="6.44" height="407.64"/><path class="cls-3" d="M1526.97,5.89h72.42l12.1-4.34h-72.4c-4.03,1.45-8.06,2.9-12.12,4.34Z"/><path class="cls-3" d="M1500.28,5.89h16.31c4.06-1.44,8.12-2.89,12.17-4.34h-16.54l-11.94,4.34Z"/><path class="cls-3" d="M1482.34,5.89h7.67c3.98-1.45,7.96-2.89,11.94-4.34h-7.67l-11.94,4.34Z"/><path class="cls-3" d="M1484,1.55h-38.38l-17.39,4.34h43.83l11.94-4.34Z"/><rect class="cls-3" x="1723.98" y="-106.28" width="6.44" height="220" transform="translate(1730.93 -1723.48) rotate(90)"/><g><g><g><rect class="cls-1" x="27.07" y="454.16" width="10.74" height="13.35" transform="translate(-361.4 219.36) rotate(-54.46)"/><rect class="cls-4" x="29.21" y="462.97" width="1.99" height="1.33" transform="translate(-364.62 218.71) rotate(-54.46)"/><rect class="cls-4" x="31.29" y="460.06" width="1.99" height="1.33" transform="translate(-361.38 219.19) rotate(-54.46)"/><rect class="cls-4" x="33.36" y="457.16" width="1.99" height="1.33" transform="translate(-358.15 219.66) rotate(-54.46)"/></g><g><rect class="cls-1" x="20.83" y="462.91" width="10.74" height="13.35" transform="translate(-371.13 217.94) rotate(-54.46)"/><rect class="cls-4" x="22.96" y="471.71" width="1.99" height="1.34" transform="translate(-374.35 217.29) rotate(-54.46)"/><rect class="cls-4" x="25.04" y="468.8" width="1.99" height="1.33" transform="translate(-371.11 217.77) rotate(-54.46)"/><rect class="cls-4" x="27.11" y="465.9" width="1.99" height="1.34" transform="translate(-367.87 218.22) rotate(-54.46)"/></g><g><rect class="cls-1" x="14.58" y="471.65" width="10.74" height="13.35" transform="translate(-380.86 216.52) rotate(-54.46)"/><rect class="cls-4" x="16.72" y="480.45" width="1.99" height="1.33" transform="translate(-384.08 215.87) rotate(-54.46)"/><rect class="cls-4" x="18.8" y="477.54" width="1.99" height="1.33" transform="translate(-380.84 216.34) rotate(-54.46)"/><rect class="cls-4" x="20.87" y="474.64" width="1.99" height="1.33" transform="translate(-377.61 216.82) rotate(-54.46)"/></g><g><rect class="cls-1" x="8.34" y="480.39" width="10.74" height="13.35" transform="translate(-390.59 215.1) rotate(-54.46)"/><rect class="cls-4" x="10.47" y="489.2" width="1.99" height="1.33" transform="translate(-393.8 214.45) rotate(-54.46)"/><rect class="cls-4" x="12.55" y="486.29" width="1.99" height="1.34" transform="translate(-390.55 214.91) rotate(-54.46)"/><rect class="cls-4" x="14.62" y="483.39" width="1.99" height="1.34" transform="translate(-387.34 215.39) rotate(-54.46)"/></g></g><g><g><rect class="cls-1" x="27.07" y="476.62" width="10.74" height="13.35" transform="translate(-379.67 228.76) rotate(-54.46)"/><rect class="cls-4" x="29.21" y="485.42" width="1.99" height="1.34" transform="translate(-382.89 228.11) rotate(-54.46)"/><rect class="cls-4" x="31.29" y="482.51" width="1.99" height="1.33" transform="translate(-379.65 228.59) rotate(-54.46)"/><rect class="cls-4" x="33.36" y="479.61" width="1.99" height="1.33" transform="translate(-376.42 229.06) rotate(-54.46)"/></g><g><rect class="cls-1" x="20.83" y="485.36" width="10.74" height="13.35" transform="translate(-389.4 227.34) rotate(-54.46)"/><rect class="cls-4" x="22.96" y="494.16" width="1.99" height="1.34" transform="translate(-392.6 226.68) rotate(-54.46)"/><rect class="cls-4" x="25.04" y="491.25" width="1.99" height="1.33" transform="translate(-389.38 227.17) rotate(-54.46)"/><rect class="cls-4" x="27.11" y="488.35" width="1.99" height="1.33" transform="translate(-386.15 227.64) rotate(-54.46)"/></g><g><rect class="cls-1" x="14.58" y="494.1" width="10.74" height="13.35" transform="translate(-399.12 225.92) rotate(-54.46)"/><rect class="cls-4" x="16.72" y="502.91" width="1.99" height="1.33" transform="translate(-402.34 225.27) rotate(-54.46)"/><rect class="cls-4" x="18.8" y="499.99" width="1.99" height="1.33" transform="translate(-399.1 225.74) rotate(-54.46)"/><rect class="cls-4" x="20.87" y="497.09" width="1.99" height="1.33" transform="translate(-395.88 226.22) rotate(-54.46)"/></g><g><rect class="cls-1" x="8.34" y="502.84" width="10.74" height="13.35" transform="translate(-408.85 224.5) rotate(-54.46)"/><rect class="cls-4" x="10.47" y="511.65" width="1.99" height="1.34" transform="translate(-412.07 223.85) rotate(-54.46)"/><rect class="cls-4" x="12.55" y="508.74" width="1.99" height="1.33" transform="translate(-408.83 224.32) rotate(-54.46)"/><rect class="cls-4" x="14.62" y="505.84" width="1.99" height="1.34" transform="translate(-405.59 224.78) rotate(-54.46)"/></g></g><g><g><rect class="cls-1" x="27.07" y="498.03" width="10.74" height="13.35" transform="translate(-397.09 237.73) rotate(-54.46)"/><rect class="cls-4" x="29.21" y="506.84" width="1.99" height="1.34" transform="translate(-400.3 237.06) rotate(-54.46)"/><rect class="cls-4" x="31.29" y="503.93" width="1.99" height="1.33" transform="translate(-397.07 237.55) rotate(-54.46)"/><rect class="cls-4" x="33.36" y="501.03" width="1.99" height="1.33" transform="translate(-393.84 238.02) rotate(-54.46)"/></g><g><rect class="cls-1" x="20.83" y="506.77" width="10.74" height="13.35" transform="translate(-406.82 236.31) rotate(-54.46)"/><rect class="cls-4" x="22.96" y="515.58" width="1.99" height="1.33" transform="translate(-410.04 235.66) rotate(-54.46)"/><rect class="cls-4" x="25.04" y="512.67" width="1.99" height="1.33" transform="translate(-406.8 236.13) rotate(-54.46)"/><rect class="cls-4" x="27.11" y="509.77" width="1.99" height="1.33" transform="translate(-403.57 236.6) rotate(-54.46)"/></g><g><rect class="cls-1" x="14.58" y="515.51" width="10.74" height="13.35" transform="translate(-416.55 234.89) rotate(-54.46)"/><rect class="cls-4" x="16.72" y="524.32" width="1.99" height="1.34" transform="translate(-419.77 234.24) rotate(-54.46)"/><rect class="cls-4" x="18.8" y="521.41" width="1.99" height="1.33" transform="translate(-416.53 234.71) rotate(-54.46)"/><rect class="cls-4" x="20.87" y="518.51" width="1.99" height="1.34" transform="translate(-413.29 235.17) rotate(-54.46)"/></g><g><rect class="cls-1" x="8.34" y="524.25" width="10.74" height="13.35" transform="translate(-426.28 233.47) rotate(-54.46)"/><rect class="cls-4" x="10.47" y="533.06" width="1.99" height="1.33" transform="translate(-429.49 232.82) rotate(-54.46)"/><rect class="cls-4" x="12.55" y="530.15" width="1.99" height="1.33" transform="translate(-426.26 233.29) rotate(-54.46)"/><rect class="cls-4" x="14.62" y="527.25" width="1.99" height="1.33" transform="translate(-423.03 233.76) rotate(-54.46)"/></g></g><g><g><rect class="cls-1" x="27.07" y="515.51" width="10.74" height="13.35" transform="translate(-411.32 245.05) rotate(-54.46)"/><rect class="cls-4" x="29.21" y="524.32" width="1.99" height="1.34" transform="translate(-414.53 244.38) rotate(-54.46)"/><rect class="cls-4" x="31.29" y="521.41" width="1.99" height="1.33" transform="translate(-411.3 244.87) rotate(-54.46)"/><rect class="cls-4" x="33.36" y="518.51" width="1.99" height="1.34" transform="translate(-408.06 245.33) rotate(-54.46)"/></g><g><rect class="cls-1" x="20.83" y="524.25" width="10.74" height="13.35" transform="translate(-421.05 243.63) rotate(-54.46)"/><rect class="cls-4" x="22.96" y="533.06" width="1.99" height="1.33" transform="translate(-424.27 242.98) rotate(-54.46)"/><rect class="cls-4" x="25.04" y="530.15" width="1.99" height="1.33" transform="translate(-421.03 243.46) rotate(-54.46)"/><rect class="cls-4" x="27.11" y="527.25" width="1.99" height="1.34" transform="translate(-417.8 243.93) rotate(-54.46)"/></g><g><rect class="cls-1" x="14.58" y="533" width="10.74" height="13.35" transform="translate(-430.78 242.21) rotate(-54.46)"/><rect class="cls-4" x="16.72" y="541.8" width="1.99" height="1.34" transform="translate(-434 241.56) rotate(-54.46)"/><rect class="cls-4" x="18.8" y="538.89" width="1.99" height="1.33" transform="translate(-430.75 242.03) rotate(-54.46)"/><rect class="cls-4" x="20.87" y="535.99" width="1.99" height="1.34" transform="translate(-427.53 242.51) rotate(-54.46)"/></g><g><rect class="cls-1" x="8.34" y="541.74" width="10.74" height="13.35" transform="translate(-440.5 240.79) rotate(-54.46)"/><rect class="cls-4" x="10.47" y="550.54" width="1.99" height="1.33" transform="translate(-443.72 240.14) rotate(-54.46)"/><rect class="cls-4" x="12.55" y="547.63" width="1.99" height="1.33" transform="translate(-440.48 240.61) rotate(-54.46)"/><rect class="cls-4" x="14.62" y="544.73" width="1.99" height="1.33" transform="translate(-437.25 241.08) rotate(-54.46)"/></g></g><g><g><rect class="cls-1" x="27.07" y="533" width="10.74" height="13.35" transform="translate(-425.55 252.37) rotate(-54.46)"/><rect class="cls-4" x="29.21" y="541.8" width="1.99" height="1.33" transform="translate(-428.76 251.72) rotate(-54.46)"/><rect class="cls-4" x="31.29" y="538.89" width="1.99" height="1.33" transform="translate(-425.52 252.19) rotate(-54.46)"/><rect class="cls-4" x="33.36" y="535.99" width="1.99" height="1.33" transform="translate(-422.3 252.67) rotate(-54.46)"/></g><g><rect class="cls-1" x="20.83" y="541.74" width="10.74" height="13.35" transform="translate(-435.27 250.95) rotate(-54.46)"/><rect class="cls-4" x="22.96" y="550.54" width="1.99" height="1.33" transform="translate(-438.49 250.3) rotate(-54.46)"/><rect class="cls-4" x="25.04" y="547.63" width="1.99" height="1.33" transform="translate(-435.25 250.78) rotate(-54.46)"/><rect class="cls-4" x="27.11" y="544.73" width="1.99" height="1.34" transform="translate(-432.03 251.25) rotate(-54.46)"/></g><g><rect class="cls-1" x="14.58" y="550.48" width="10.74" height="13.35" transform="translate(-445 249.53) rotate(-54.46)"/><rect class="cls-4" x="16.72" y="559.29" width="1.99" height="1.33" transform="translate(-448.22 248.88) rotate(-54.46)"/><rect class="cls-4" x="18.8" y="556.38" width="1.99" height="1.34" transform="translate(-444.98 249.35) rotate(-54.46)"/><rect class="cls-4" x="20.87" y="553.47" width="1.99" height="1.33" transform="translate(-441.75 249.83) rotate(-54.46)"/></g><g><rect class="cls-1" x="8.34" y="559.22" width="10.74" height="13.35" transform="translate(-454.73 248.11) rotate(-54.46)"/><rect class="cls-4" x="10.47" y="568.03" width="1.99" height="1.33" transform="translate(-457.95 247.46) rotate(-54.46)"/><rect class="cls-4" x="12.55" y="565.12" width="1.99" height="1.33" transform="translate(-454.71 247.93) rotate(-54.46)"/><rect class="cls-4" x="14.62" y="562.22" width="1.99" height="1.33" transform="translate(-451.48 248.4) rotate(-54.46)"/></g></g></g><g><g><g><polygon class="cls-3" points="1808.03 767.64 1808.03 773.19 1803.23 770.42 1798.42 767.64 1803.23 764.87 1808.03 762.09 1808.03 767.64"/><polygon class="cls-3" points="1808.03 743.83 1808.03 749.38 1803.23 746.6 1798.42 743.83 1803.23 741.05 1808.03 738.28 1808.03 743.83"/><polygon class="cls-3" points="1808.03 720.01 1808.03 725.56 1803.23 722.79 1798.42 720.01 1803.23 717.24 1808.03 714.47 1808.03 720.01"/><polygon class="cls-3" points="1808.03 696.2 1808.03 701.75 1803.23 698.97 1798.42 696.2 1803.23 693.42 1808.03 690.65 1808.03 696.2"/></g><rect class="cls-3" x="1829.66" y="688.67" width="6.44" height="312.37"/></g><g><g><path class="cls-3" d="M1740.5,923.19c2.06,0,2.07-3.21,0-3.21s-2.07,3.21,0,3.21h0Z"/><path class="cls-3" d="M1749.87,923.19c2.06,0,2.07-3.21,0-3.21s-2.07,3.21,0,3.21h0Z"/><path class="cls-3" d="M1759.23,923.19c2.06,0,2.07-3.21,0-3.21s-2.07,3.21,0,3.21h0Z"/><path class="cls-3" d="M1768.34,923.19c2.06,0,2.07-3.21,0-3.21s-2.07,3.21,0,3.21h0Z"/><path class="cls-3" d="M1777.7,923.19c2.06,0,2.07-3.21,0-3.21s-2.07,3.21,0,3.21h0Z"/><path class="cls-3" d="M1786.81,923.19c2.06,0,2.07-3.21,0-3.21s-2.07,3.21,0,3.21h0Z"/><path class="cls-3" d="M1795.67,923.19c2.06,0,2.07-3.21,0-3.21s-2.07,3.21,0,3.21h0Z"/></g><g><path class="cls-3" d="M1740.5,933.93c2.06,0,2.07-3.21,0-3.21s-2.07,3.21,0,3.21h0Z"/><path class="cls-3" d="M1749.87,933.93c2.06,0,2.07-3.21,0-3.21s-2.07,3.21,0,3.21h0Z"/><path class="cls-3" d="M1759.23,933.93c2.06,0,2.07-3.21,0-3.21s-2.07,3.21,0,3.21h0Z"/><path class="cls-3" d="M1768.34,933.93c2.06,0,2.07-3.21,0-3.21s-2.07,3.21,0,3.21h0Z"/><path class="cls-3" d="M1777.7,933.93c2.06,0,2.07-3.21,0-3.21s-2.07,3.21,0,3.21h0Z"/><path class="cls-3" d="M1786.81,933.93c2.06,0,2.07-3.21,0-3.21s-2.07,3.21,0,3.21h0Z"/><path class="cls-3" d="M1795.67,933.93c2.06,0,2.07-3.21,0-3.21s-2.07,3.21,0,3.21h0Z"/></g><g><path class="cls-3" d="M1740.5,944.68c2.06,0,2.07-3.21,0-3.21s-2.07,3.21,0,3.21h0Z"/><path class="cls-3" d="M1749.87,944.68c2.06,0,2.07-3.21,0-3.21s-2.07,3.21,0,3.21h0Z"/><path class="cls-3" d="M1759.23,944.68c2.06,0,2.07-3.21,0-3.21s-2.07,3.21,0,3.21h0Z"/><path class="cls-3" d="M1768.34,944.68c2.06,0,2.07-3.21,0-3.21s-2.07,3.21,0,3.21h0Z"/><path class="cls-3" d="M1777.7,944.68c2.06,0,2.07-3.21,0-3.21s-2.07,3.21,0,3.21h0Z"/><path class="cls-3" d="M1786.81,944.68c2.06,0,2.07-3.21,0-3.21s-2.07,3.21,0,3.21h0Z"/><path class="cls-3" d="M1795.67,944.68c2.06,0,2.07-3.21,0-3.21s-2.07,3.21,0,3.21h0Z"/></g><g><path class="cls-3" d="M1740.76,956.89c2.06,0,2.07-3.21,0-3.21s-2.07,3.21,0,3.21h0Z"/><path class="cls-3" d="M1750.12,956.89c2.06,0,2.07-3.21,0-3.21s-2.07,3.21,0,3.21h0Z"/><path class="cls-3" d="M1759.48,956.89c2.06,0,2.07-3.21,0-3.21s-2.07,3.21,0,3.21h0Z"/><path class="cls-3" d="M1768.59,956.89c2.06,0,2.07-3.21,0-3.21s-2.07,3.21,0,3.21h0Z"/><path class="cls-3" d="M1777.95,956.89c2.06,0,2.07-3.21,0-3.21s-2.07,3.21,0,3.21h0Z"/><path class="cls-3" d="M1787.06,956.89c2.06,0,2.07-3.21,0-3.21s-2.07,3.21,0,3.21h0Z"/><path class="cls-3" d="M1795.92,956.89c2.06,0,2.07-3.21,0-3.21s-2.07,3.21,0,3.21h0Z"/></g><g><path class="cls-3" d="M1740.76,967.63c2.06,0,2.07-3.21,0-3.21s-2.07,3.21,0,3.21h0Z"/><path class="cls-3" d="M1750.12,967.63c2.06,0,2.07-3.21,0-3.21s-2.07,3.21,0,3.21h0Z"/><path class="cls-3" d="M1759.48,967.63c2.06,0,2.07-3.21,0-3.21s-2.07,3.21,0,3.21h0Z"/><path class="cls-3" d="M1768.59,967.63c2.06,0,2.07-3.21,0-3.21s-2.07,3.21,0,3.21h0Z"/><path class="cls-3" d="M1777.95,967.63c2.06,0,2.07-3.21,0-3.21s-2.07,3.21,0,3.21h0Z"/><path class="cls-3" d="M1787.06,967.63c2.06,0,2.07-3.21,0-3.21s-2.07,3.21,0,3.21h0Z"/><path class="cls-3" d="M1795.92,967.63c2.06,0,2.07-3.21,0-3.21s-2.07,3.21,0,3.21h0Z"/></g><g><path class="cls-3" d="M1740.76,978.38c2.06,0,2.07-3.21,0-3.21s-2.07,3.21,0,3.21h0Z"/><path class="cls-3" d="M1750.12,978.38c2.06,0,2.07-3.21,0-3.21s-2.07,3.21,0,3.21h0Z"/><path class="cls-3" d="M1759.48,978.38c2.06,0,2.07-3.21,0-3.21s-2.07,3.21,0,3.21h0Z"/><path class="cls-3" d="M1768.59,978.38c2.06,0,2.07-3.21,0-3.21s-2.07,3.21,0,3.21h0Z"/><path class="cls-3" d="M1777.95,978.38c2.06,0,2.07-3.21,0-3.21s-2.07,3.21,0,3.21h0Z"/><path class="cls-3" d="M1787.06,978.38c2.06,0,2.07-3.21,0-3.21s-2.07,3.21,0,3.21h0Z"/><path class="cls-3" d="M1795.92,978.38c2.06,0,2.07-3.21,0-3.21s-2.07,3.21,0,3.21h0Z"/></g></g><polyline class="cls-2" points="1819 882.62 1819 999.22 83.21 999.22"/></g></g></svg>