<svg xmlns="http://www.w3.org/2000/svg" width="50.571" height="105.77" viewBox="0 0 50.571 105.77">
  <g id="Group_103" data-name="Group 103" transform="translate(66.437 -15.799) rotate(90)" style="mix-blend-mode: darken;isolation: isolate">
    <g id="Group_109" data-name="Group 109" transform="translate(16.049 16.121)">
      <g id="Group_101" data-name="Group 101">
        <g id="Group_110" data-name="Group 110">
          <g id="Group_99" data-name="Group 99" opacity="0.7" style="mix-blend-mode: screen;isolation: isolate">
            <g id="Group_98" data-name="Group 98">
              <g id="Group_111" data-name="Group 111">
                <path id="Path_368" data-name="Path 368" d="M26.7,72.912c-1.92,1.309-5.67-4.362-4.362-6.034S28.3,71.822,26.7,72.912Z" transform="translate(-17.467 -28.02)" fill="none" stroke="#242424" stroke-linecap="round" stroke-linejoin="round" stroke-width="0.5"/>
                <path id="Path_369" data-name="Path 369" d="M82.641,71.961c-4.679-.025-8.708.04-11.589.176a105.547,105.547,0,0,0-16.576,2.109c10.954.551,19.847.8,27.041.874C81.991,74.08,82.213,73.024,82.641,71.961Z" transform="translate(-25.106 -29.28)" fill="none" stroke="#242424" stroke-linecap="round" stroke-linejoin="round" stroke-width="0.5"/>
                <path id="Path_370" data-name="Path 370" d="M90.977,75.129c22.2.167,27.718-1.462,27.718-1.462-4.451-1.138-16.416-1.636-26.661-1.7C91.708,73.006,91.208,74.062,90.977,75.129Z" transform="translate(-33.708 -29.283)" fill="none" stroke="#242424" stroke-linecap="round" stroke-linejoin="round" stroke-width="0.5"/>
                <path id="Path_371" data-name="Path 371" d="M82.641,24.8c-4.679.025-8.708-.04-11.589-.176a105.548,105.548,0,0,1-16.576-2.109c10.954-.551,19.847-.8,27.041-.874C81.991,22.684,82.213,23.741,82.641,24.8Z" transform="translate(-25.106 -17.423)" fill="none" stroke="#242424" stroke-linecap="round" stroke-linejoin="round" stroke-width="0.5"/>
                <path id="Path_372" data-name="Path 372" d="M90.977,21.632c22.2-.168,27.718,1.462,27.718,1.462-4.451,1.137-16.416,1.636-26.661,1.7C91.708,23.754,91.208,22.7,90.977,21.632Z" transform="translate(-33.708 -17.417)" fill="none" stroke="#242424" stroke-linecap="round" stroke-linejoin="round" stroke-width="0.5"/>
                <path id="Path_373" data-name="Path 373" d="M148.933,66.876c.617.293.535,1.756-.183,3.268s-1.8,2.5-2.416,2.21-.535-1.756.183-3.269S148.316,66.583,148.933,66.876Z" transform="translate(-46.657 -28.071)" fill="none" stroke="#242424" stroke-linecap="round" stroke-linejoin="round" stroke-width="0.5"/>
                <path id="Path_374" data-name="Path 374" d="M26.7,22.823c-1.92-1.309-5.67,4.362-4.362,6.034S28.3,23.914,26.7,22.823Z" transform="translate(-17.467 -17.655)" fill="none" stroke="#242424" stroke-linecap="round" stroke-linejoin="round" stroke-width="0.5"/>
                <path id="Path_375" data-name="Path 375" d="M50.073,16.306a12.614,12.614,0,0,0-2.52,2.83l-3.575-.51a48.8,48.8,0,0,0-6.891-.489H32.181A16.131,16.131,0,0,0,16.049,34.268V48.036A16.131,16.131,0,0,0,32.181,64.167h4.905a48.8,48.8,0,0,0,6.891-.488l3.575-.51A12.626,12.626,0,0,0,50.073,66c.872.436,1.672,0,1.6-.29-.051-.2-.775-1.93-1.208-2.953l.277-.04a48.863,48.863,0,0,1,7.568-.485l28.1.39a17.2,17.2,0,0,1,4.866.773,17.2,17.2,0,0,0,5.1.775h12.468a12.474,12.474,0,0,0,12.474-12.474V30.61a12.474,12.474,0,0,0-12.474-12.474H96.377a17.2,17.2,0,0,0-5.1.775,17.2,17.2,0,0,1-4.866.773l-28.1.389a48.863,48.863,0,0,1-7.568-.484l-.277-.04c.433-1.023,1.156-2.751,1.208-2.953C51.745,16.306,50.945,15.87,50.073,16.306Z" transform="translate(-16.049 -16.121)" fill="none" stroke="#242424" stroke-linecap="round" stroke-linejoin="round" stroke-width="0.5"/>
                <path id="Path_376" data-name="Path 376" d="M148.933,29.143c.617-.293.535-1.756-.183-3.268s-1.8-2.5-2.416-2.21-.535,1.756.183,3.269S148.316,29.436,148.933,29.143Z" transform="translate(-46.657 -17.887)" fill="none" stroke="#242424" stroke-linecap="round" stroke-linejoin="round" stroke-width="0.5"/>
                <path id="Path_377" data-name="Path 377" d="M101.735,43.126c0-10.7-2.108-15.5-2.108-15.5h16.067s4.435,3.955,4.435,15.5-4.435,15.5-4.435,15.5H99.627S101.735,53.829,101.735,43.126Zm-62.667,0h0c0,14.868,8.142,18.626,8.142,18.626L63.2,59.763a91.826,91.826,0,0,1-1.818-16.636A91.826,91.826,0,0,1,63.2,26.49L47.21,24.5S39.068,28.259,39.068,43.126Z" transform="translate(-21.474 -18.096)" fill="none" stroke="#242424" stroke-linecap="round" stroke-linejoin="round" stroke-width="0.5"/>
              </g>
            </g>
          </g>
        </g>
      </g>
    </g>
  </g>
</svg>
