<?xml version="1.0" encoding="UTF-8"?><svg id="_層_2" xmlns="http://www.w3.org/2000/svg" viewBox="0 0 223.82 90.52"><defs><style>.cls-1{fill:#05141f;}</style></defs><g id="_層_1-2"><g><path class="cls-1" d="M129.86,46.63c0,.41,.13,.65,.37,.65,.17,0,.34-.08,.54-.21L200.54,1.77c1.22-.8,2.35-1.22,4.02-1.22h15.33c2.36,0,3.93,1.57,3.93,3.93v29.27c0,3.54-.79,5.58-3.93,7.47l-18.6,11.17c-.25,.15-.45,.23-.62,.23-.23,0-.43-.17-.43-.81V17.65c0-.37-.12-.66-.38-.66-.17,0-.33,.08-.54,.2l-51,33.12c-1.43,.93-2.6,1.21-3.91,1.21h-33.81c-2.36,0-3.93-1.57-3.93-3.93V5.41c0-.31-.14-.59-.37-.59-.17,0-.33,.08-.55,.2l-33.63,20.2c-.34,.2-.43,.37-.43,.53,0,.15,.06,.28,.3,.52l24.02,24.02c.32,.32,.54,.56,.54,.81,0,.29-.35,.42-.76,.42h-21.74c-1.7,0-3.02-.26-3.93-1.18l-14.57-14.56c-.14-.14-.27-.23-.42-.23-.13,0-.3,.06-.45,.16l-24.37,14.64c-1.47,.89-2.49,1.18-3.93,1.18H3.93c-2.36,0-3.93-1.57-3.93-3.93V18.86c0-3.54,.79-5.57,3.93-7.46L22.64,.16c.19-.11,.35-.16,.51-.16,.28,0,.44,.3,.44,.95V39.36c0,.4,.11,.59,.37,.59,.17,0,.34-.1,.56-.23L87.74,1.73c1.5-.91,2.43-1.18,4.17-1.18h34.02c2.36,0,3.93,1.57,3.93,3.93V46.63Z"/><polygon class="cls-1" points="1.08 69.5 2.86 69.5 8.69 83.06 14.52 69.5 16.28 69.5 16.28 85.8 14.75 85.8 14.75 72.4 8.99 85.8 8.37 85.8 2.6 72.4 2.6 85.8 1.08 85.8 1.08 69.5"/><path class="cls-1" d="M18.73,79.77c0-3.67,2.17-6,5.3-6s5.3,2.34,5.3,6v.37c0,3.67-2.17,5.98-5.3,5.98s-5.3-2.32-5.3-5.98v-.37Zm5.3,5.15c2.32,0,3.8-1.78,3.8-4.78v-.37c0-2.98-1.48-4.8-3.8-4.8s-3.8,1.82-3.8,4.8v.37c0,3,1.48,4.78,3.8,4.78"/><polygon class="cls-1" points="31.45 74.09 35.24 84.23 39.08 74.09 40.56 74.09 36.08 85.8 34.36 85.8 29.88 74.09 31.45 74.09"/><path class="cls-1" d="M41.12,79.65c0-3.43,2.08-5.88,5.12-5.88s4.89,1.93,4.89,6v.62h-8.53c.09,2.53,1.48,4.52,3.79,4.52,2.04,0,3.37-1.03,4.14-1.78v1.59c-.88,.79-2.36,1.39-4.14,1.39-3.3,0-5.27-2.44-5.27-5.98v-.49Zm8.55-.41c-.06-3.02-1.54-4.27-3.43-4.27s-3.5,1.65-3.62,4.27h7.05Z"/><path class="cls-1" d="M53.34,74.09h1.29l.15,2.4c.75-1.44,2.1-2.72,4.01-2.72,1.8,0,2.96,.96,3.3,2.81,.79-1.48,2.17-2.81,4.1-2.81,2.19,0,3.43,1.42,3.43,4.09v7.93h-1.46v-7.72c0-2.04-.58-3.11-2.19-3.11-1.46,0-3.28,1.67-3.77,3.54v7.29h-1.46v-7.72c0-2.04-.56-3.11-2.17-3.11-1.46,0-3.28,1.67-3.77,3.54v7.29h-1.46v-11.71Z"/><path class="cls-1" d="M71.73,79.65c0-3.43,2.08-5.88,5.12-5.88s4.89,1.93,4.89,6v.62h-8.53c.09,2.53,1.48,4.52,3.79,4.52,2.04,0,3.37-1.03,4.14-1.78v1.59c-.88,.79-2.36,1.39-4.14,1.39-3.3,0-5.28-2.44-5.28-5.98v-.49Zm8.56-.41c-.06-3.02-1.54-4.27-3.43-4.27s-3.5,1.65-3.62,4.27h7.05Z"/><path class="cls-1" d="M83.95,74.09h1.29l.15,2.7c.75-1.48,2.29-3.02,4.4-3.02,2.42,0,3.69,1.52,3.69,4.31v7.72h-1.46v-7.51c0-2.14-.62-3.32-2.44-3.32s-3.69,1.97-4.16,4.03v6.8h-1.46v-11.71Z"/><polygon class="cls-1" points="94.8 74.09 97.4 74.09 97.4 70.53 98.86 70.53 98.86 74.09 101.45 74.09 101.45 75.31 98.86 75.31 98.86 85.8 97.4 85.8 97.4 75.31 94.8 75.31 94.8 74.09"/><polygon class="cls-1" points="108.07 74.09 110.67 74.09 110.67 70.53 112.13 70.53 112.13 74.09 114.72 74.09 114.72 75.31 112.13 75.31 112.13 85.8 110.67 85.8 110.67 75.31 108.07 75.31 108.07 74.09"/><path class="cls-1" d="M116.39,69.38h1.46v7.35c.75-1.46,2.29-2.96,4.35-2.96,2.42,0,3.69,1.52,3.69,4.31v7.72h-1.46v-7.51c0-2.14-.62-3.32-2.44-3.32s-3.62,1.91-4.14,3.94v6.88h-1.46v-16.42Z"/><path class="cls-1" d="M128.42,80.87c.64-.96,1.93-1.41,4.31-1.86l3.15-.6c0-2.27-.99-3.43-3.17-3.43-1.71,0-3.04,.79-3.96,1.74v-1.48c.83-.77,2.23-1.46,3.96-1.46,2.79,0,4.61,1.39,4.61,4.29v7.74h-1.07l-.37-2.02c-1.03,1.42-2.72,2.34-4.55,2.34-2.04,0-3.47-1.14-3.47-3.32,0-.71,.15-1.33,.56-1.93m3.22,4.05c1.39,0,3.24-.94,4.25-2.77v-2.57l-2.23,.43c-1.61,.3-3.24,.51-3.92,1.41-.3,.39-.38,.81-.38,1.33,0,1.48,.94,2.17,2.29,2.17"/><polygon class="cls-1" points="138.62 74.09 141.21 74.09 141.21 70.53 142.67 70.53 142.67 74.09 145.26 74.09 145.26 75.31 142.67 75.31 142.67 85.8 141.21 85.8 141.21 75.31 138.62 75.31 138.62 74.09"/><path class="cls-1" d="M153.39,69.81h1.46v2.08h-1.46v-2.08Zm0,4.29h1.46v11.71h-1.46v-11.71Z"/><path class="cls-1" d="M157.7,74.09h1.29l.15,2.7c.75-1.48,2.29-3.02,4.4-3.02,2.42,0,3.69,1.52,3.69,4.31v7.72h-1.46v-7.51c0-2.14-.62-3.32-2.44-3.32s-3.69,1.97-4.16,4.03v6.8h-1.46v-11.71Z"/><path class="cls-1" d="M169.42,83.12c1.07,1.22,2.14,1.8,3.64,1.8,1.7,0,2.85-.77,2.85-2.04,0-.86-.28-1.5-1.8-2.14l-1.78-.75c-1.86-.79-2.76-1.76-2.76-3.2,0-1.57,1.37-3.02,3.84-3.02,1.48,0,2.77,.64,3.58,1.33v1.67c-1.14-1.2-2.44-1.8-3.58-1.8-1.65,0-2.34,.88-2.34,1.82,0,.84,.64,1.31,1.97,1.87l1.72,.73c1.91,.81,2.66,1.87,2.66,3.43,0,1.99-1.78,3.3-4.35,3.3-1.84,0-2.89-.62-3.64-1.33v-1.67Z"/><path class="cls-1" d="M179.57,74.09h1.29l.13,2.1c.84-1.39,2.29-2.42,3.94-2.42,2.98,0,5.08,2.44,5.08,6.15s-2.1,6.2-5.08,6.2c-1.63,0-3.04-1.01-3.9-2.34v6.73h-1.46v-16.42Zm5.23,10.83c2.21,0,3.71-1.99,3.71-4.99s-1.5-4.95-3.71-4.95c-1.65,0-3.22,1.48-3.77,3.28v3.39c.56,1.8,2.12,3.28,3.77,3.28"/><path class="cls-1" d="M192.24,69.81h1.46v2.08h-1.46v-2.08Zm0,4.29h1.46v11.71h-1.46v-11.71Z"/><path class="cls-1" d="M196.56,74.09h1.29l.13,2.08c.71-1.44,1.82-2.4,3.5-2.4,.47,0,.99,.09,1.18,.17v1.29c-.3-.11-.73-.19-1.29-.19-1.44,0-2.76,1.12-3.34,2.9v7.87h-1.46v-11.71Z"/><path class="cls-1" d="M203.22,79.65c0-3.43,2.08-5.88,5.12-5.88s4.89,1.93,4.89,6v.62h-8.53c.09,2.53,1.48,4.52,3.79,4.52,2.04,0,3.37-1.03,4.14-1.78v1.59c-.88,.79-2.36,1.39-4.14,1.39-3.3,0-5.27-2.44-5.27-5.98v-.49Zm8.56-.41c-.07-3.02-1.54-4.27-3.43-4.27s-3.5,1.65-3.62,4.27h7.05Z"/><path class="cls-1" d="M214.78,83.12c1.07,1.22,2.14,1.8,3.64,1.8,1.7,0,2.85-.77,2.85-2.04,0-.86-.28-1.5-1.8-2.14l-1.78-.75c-1.86-.79-2.76-1.76-2.76-3.2,0-1.57,1.37-3.02,3.84-3.02,1.48,0,2.77,.64,3.58,1.33v1.67c-1.14-1.2-2.44-1.8-3.58-1.8-1.65,0-2.34,.88-2.34,1.82,0,.84,.64,1.31,1.97,1.87l1.72,.73c1.91,.81,2.66,1.87,2.66,3.43,0,1.99-1.78,3.3-4.35,3.3-1.84,0-2.89-.62-3.64-1.33v-1.67Z"/></g></g></svg>