<?xml version="1.0" encoding="UTF-8"?><svg id="_層_2" xmlns="http://www.w3.org/2000/svg" viewBox="0 0 223.82 112.39"><defs><style>.cls-1{fill:#05141f;}</style></defs><g id="_層_1-2"><g><g><path class="cls-1" d="M129.86,46.63c0,.41,.13,.65,.37,.65,.17,0,.34-.08,.54-.21L200.54,1.77c1.22-.8,2.35-1.22,4.02-1.22h15.33c2.36,0,3.93,1.57,3.93,3.93v29.27c0,3.54-.79,5.58-3.93,7.47l-18.6,11.17c-.25,.15-.45,.23-.62,.23-.23,0-.43-.17-.43-.81V17.65c0-.37-.12-.66-.38-.66-.17,0-.33,.08-.54,.2l-51,33.12c-1.43,.93-2.6,1.21-3.91,1.21h-33.81c-2.36,0-3.93-1.57-3.93-3.93V5.41c0-.31-.14-.59-.37-.59-.17,0-.33,.08-.55,.2l-33.63,20.2c-.34,.2-.43,.37-.43,.53,0,.15,.06,.28,.3,.52l24.02,24.02c.32,.32,.54,.56,.54,.81,0,.29-.35,.42-.76,.42h-21.74c-1.7,0-3.02-.26-3.93-1.18l-14.57-14.56c-.14-.14-.27-.23-.42-.23-.13,0-.3,.06-.45,.16l-24.37,14.64c-1.47,.89-2.49,1.18-3.93,1.18H3.93c-2.36,0-3.93-1.57-3.93-3.93V18.86c0-3.54,.79-5.57,3.93-7.46L22.64,.16c.19-.11,.35-.16,.51-.16,.28,0,.44,.3,.44,.95V39.36c0,.4,.11,.59,.37,.59,.17,0,.34-.1,.56-.23L87.74,1.73c1.5-.91,2.43-1.18,4.17-1.18h34.02c2.36,0,3.93,1.57,3.93,3.93V46.63Z"/><polygon class="cls-1" points="1.08 69.5 2.86 69.5 8.69 83.06 14.52 69.5 16.28 69.5 16.28 85.8 14.75 85.8 14.75 72.4 8.99 85.8 8.37 85.8 2.6 72.4 2.6 85.8 1.08 85.8 1.08 69.5"/><path class="cls-1" d="M18.73,79.77c0-3.67,2.17-6,5.3-6s5.3,2.34,5.3,6v.37c0,3.67-2.17,5.98-5.3,5.98s-5.3-2.32-5.3-5.98v-.37Zm5.3,5.15c2.32,0,3.8-1.78,3.8-4.78v-.37c0-2.98-1.48-4.8-3.8-4.8s-3.8,1.82-3.8,4.8v.37c0,3,1.48,4.78,3.8,4.78"/><polygon class="cls-1" points="31.45 74.09 35.24 84.23 39.08 74.09 40.56 74.09 36.08 85.8 34.36 85.8 29.88 74.09 31.45 74.09"/><path class="cls-1" d="M41.12,79.65c0-3.43,2.08-5.88,5.12-5.88s4.89,1.93,4.89,6v.62h-8.53c.09,2.53,1.48,4.52,3.79,4.52,2.04,0,3.37-1.03,4.14-1.78v1.59c-.88,.79-2.36,1.39-4.14,1.39-3.3,0-5.27-2.44-5.27-5.98v-.49Zm8.55-.41c-.06-3.02-1.54-4.27-3.43-4.27s-3.5,1.65-3.62,4.27h7.05Z"/><path class="cls-1" d="M53.34,74.09h1.29l.15,2.4c.75-1.44,2.1-2.72,4.01-2.72,1.8,0,2.96,.96,3.3,2.81,.79-1.48,2.17-2.81,4.1-2.81,2.19,0,3.43,1.42,3.43,4.09v7.93h-1.46v-7.72c0-2.04-.58-3.11-2.19-3.11-1.46,0-3.28,1.67-3.77,3.54v7.29h-1.46v-7.72c0-2.04-.56-3.11-2.17-3.11-1.46,0-3.28,1.67-3.77,3.54v7.29h-1.46v-11.71Z"/><path class="cls-1" d="M71.73,79.65c0-3.43,2.08-5.88,5.12-5.88s4.89,1.93,4.89,6v.62h-8.53c.09,2.53,1.48,4.52,3.79,4.52,2.04,0,3.37-1.03,4.14-1.78v1.59c-.88,.79-2.36,1.39-4.14,1.39-3.3,0-5.28-2.44-5.28-5.98v-.49Zm8.56-.41c-.06-3.02-1.54-4.27-3.43-4.27s-3.5,1.65-3.62,4.27h7.05Z"/><path class="cls-1" d="M83.95,74.09h1.29l.15,2.7c.75-1.48,2.29-3.02,4.4-3.02,2.42,0,3.69,1.52,3.69,4.31v7.72h-1.46v-7.51c0-2.14-.62-3.32-2.44-3.32s-3.69,1.97-4.16,4.03v6.8h-1.46v-11.71Z"/><polygon class="cls-1" points="94.8 74.09 97.4 74.09 97.4 70.53 98.86 70.53 98.86 74.09 101.45 74.09 101.45 75.31 98.86 75.31 98.86 85.8 97.4 85.8 97.4 75.31 94.8 75.31 94.8 74.09"/><polygon class="cls-1" points="108.07 74.09 110.67 74.09 110.67 70.53 112.13 70.53 112.13 74.09 114.72 74.09 114.72 75.31 112.13 75.31 112.13 85.8 110.67 85.8 110.67 75.31 108.07 75.31 108.07 74.09"/><path class="cls-1" d="M116.39,69.38h1.46v7.35c.75-1.46,2.29-2.96,4.35-2.96,2.42,0,3.69,1.52,3.69,4.31v7.72h-1.46v-7.51c0-2.14-.62-3.32-2.44-3.32s-3.62,1.91-4.14,3.94v6.88h-1.46v-16.42Z"/><path class="cls-1" d="M128.42,80.87c.64-.96,1.93-1.41,4.31-1.86l3.15-.6c0-2.27-.99-3.43-3.17-3.43-1.71,0-3.04,.79-3.96,1.74v-1.48c.83-.77,2.23-1.46,3.96-1.46,2.79,0,4.61,1.39,4.61,4.29v7.74h-1.07l-.37-2.02c-1.03,1.42-2.72,2.34-4.55,2.34-2.04,0-3.47-1.14-3.47-3.32,0-.71,.15-1.33,.56-1.93m3.22,4.05c1.39,0,3.24-.94,4.25-2.77v-2.57l-2.23,.43c-1.61,.3-3.24,.51-3.92,1.41-.3,.39-.38,.81-.38,1.33,0,1.48,.94,2.17,2.29,2.17"/><polygon class="cls-1" points="138.62 74.09 141.21 74.09 141.21 70.53 142.67 70.53 142.67 74.09 145.26 74.09 145.26 75.31 142.67 75.31 142.67 85.8 141.21 85.8 141.21 75.31 138.62 75.31 138.62 74.09"/><path class="cls-1" d="M153.39,69.81h1.46v2.08h-1.46v-2.08Zm0,4.29h1.46v11.71h-1.46v-11.71Z"/><path class="cls-1" d="M157.7,74.09h1.29l.15,2.7c.75-1.48,2.29-3.02,4.4-3.02,2.42,0,3.69,1.52,3.69,4.31v7.72h-1.46v-7.51c0-2.14-.62-3.32-2.44-3.32s-3.69,1.97-4.16,4.03v6.8h-1.46v-11.71Z"/><path class="cls-1" d="M169.42,83.12c1.07,1.22,2.14,1.8,3.64,1.8,1.7,0,2.85-.77,2.85-2.04,0-.86-.28-1.5-1.8-2.14l-1.78-.75c-1.86-.79-2.76-1.76-2.76-3.2,0-1.57,1.37-3.02,3.84-3.02,1.48,0,2.77,.64,3.58,1.33v1.67c-1.14-1.2-2.44-1.8-3.58-1.8-1.65,0-2.34,.88-2.34,1.82,0,.84,.64,1.31,1.97,1.87l1.72,.73c1.91,.81,2.66,1.87,2.66,3.43,0,1.99-1.78,3.3-4.35,3.3-1.84,0-2.89-.62-3.64-1.33v-1.67Z"/><path class="cls-1" d="M179.57,74.09h1.29l.13,2.1c.84-1.39,2.29-2.42,3.94-2.42,2.98,0,5.08,2.44,5.08,6.15s-2.1,6.2-5.08,6.2c-1.63,0-3.04-1.01-3.9-2.34v6.73h-1.46v-16.42Zm5.23,10.83c2.21,0,3.71-1.99,3.71-4.99s-1.5-4.95-3.71-4.95c-1.65,0-3.22,1.48-3.77,3.28v3.39c.56,1.8,2.12,3.28,3.77,3.28"/><path class="cls-1" d="M192.24,69.81h1.46v2.08h-1.46v-2.08Zm0,4.29h1.46v11.71h-1.46v-11.71Z"/><path class="cls-1" d="M196.56,74.09h1.29l.13,2.08c.71-1.44,1.82-2.4,3.5-2.4,.47,0,.99,.09,1.18,.17v1.29c-.3-.11-.73-.19-1.29-.19-1.44,0-2.76,1.12-3.34,2.9v7.87h-1.46v-11.71Z"/><path class="cls-1" d="M203.22,79.65c0-3.43,2.08-5.88,5.12-5.88s4.89,1.93,4.89,6v.62h-8.53c.09,2.53,1.48,4.52,3.79,4.52,2.04,0,3.37-1.03,4.14-1.78v1.59c-.88,.79-2.36,1.39-4.14,1.39-3.3,0-5.27-2.44-5.27-5.98v-.49Zm8.56-.41c-.07-3.02-1.54-4.27-3.43-4.27s-3.5,1.65-3.62,4.27h7.05Z"/><path class="cls-1" d="M214.78,83.12c1.07,1.22,2.14,1.8,3.64,1.8,1.7,0,2.85-.77,2.85-2.04,0-.86-.28-1.5-1.8-2.14l-1.78-.75c-1.86-.79-2.76-1.76-2.76-3.2,0-1.57,1.37-3.02,3.84-3.02,1.48,0,2.77,.64,3.58,1.33v1.67c-1.14-1.2-2.44-1.8-3.58-1.8-1.65,0-2.34,.88-2.34,1.82,0,.84,.64,1.31,1.97,1.87l1.72,.73c1.91,.81,2.66,1.87,2.66,3.43,0,1.99-1.78,3.3-4.35,3.3-1.84,0-2.89-.62-3.64-1.33v-1.67Z"/></g><g><path class="cls-1" d="M6,107.43c-.26-.45-.91-1.32-1.46-1.98v6.82h-1.15v-7.04c-.66,1.61-1.51,3.2-2.32,4.18-.11-.34-.4-.8-.59-1.08,1.01-1.12,2.12-3.17,2.76-4.99H.77v-1.12H3.38v-2.42c-.79,.16-1.6,.29-2.34,.4-.06-.27-.23-.65-.37-.92,1.8-.29,3.9-.75,5.07-1.27l.83,.89c-.58,.24-1.28,.46-2.04,.64v2.69h2.01v1.12h-2.01v.97c.5,.41,1.86,1.82,2.18,2.18l-.72,.94Zm9.3-1.93c-1.36,4-4.75,5.95-8.59,6.82-.11-.3-.38-.77-.61-1,1.78-.33,3.48-.96,4.87-1.91-.58-.57-1.47-1.23-2.29-1.72-.48,.32-1.01,.62-1.57,.91-.16-.27-.5-.64-.75-.81,2.34-1.08,3.94-2.66,4.71-4.06-1.2,.85-2.6,1.45-4.01,1.85-.13-.29-.4-.72-.62-.96,1.38-.33,2.72-.89,3.88-1.69-.51-.51-1.3-1.15-2-1.59-.43,.3-.9,.59-1.4,.86-.14-.24-.51-.62-.77-.8,2-.97,3.37-2.41,4.07-3.62l1.18,.21c-.22,.4-.5,.78-.8,1.16h2.92l.23-.05,.74,.35c-.71,1.83-1.92,3.24-3.41,4.27l1.2,.21c-.26,.43-.55,.86-.88,1.29h2.93l.22-.05,.75,.33Zm-5.58-5.37c-.19,.21-.42,.4-.64,.59,.74,.45,1.54,1.05,2.07,1.58,.72-.62,1.35-1.34,1.78-2.17h-3.21Zm.75,6.09c-.29,.29-.59,.56-.93,.83,.83,.46,1.73,1.11,2.31,1.69,.8-.7,1.45-1.53,1.91-2.52h-3.29Z"/><path class="cls-1" d="M51.46,101.45s-.02,.45-.02,.61c-.17,6.68-.32,8.89-.87,9.56-.27,.42-.59,.54-1.07,.59-.45,.06-1.2,.05-1.94,0-.03-.32-.16-.81-.34-1.12,.77,.06,1.47,.08,1.78,.08,.27,0,.42-.05,.58-.25,.37-.46,.56-2.57,.72-8.35h-2.29c-.19,4.24-.93,7.71-3.75,9.82-.18-.25-.59-.65-.88-.84,.26-.18,.48-.37,.69-.56-2.42,.29-4.91,.56-6.7,.75l-.18-1.03c.96-.08,2.16-.19,3.48-.32v-1.37h-3.03v-.91h3.03v-.97h-3v-4.73h3v-1h-3.46v-.93h3.46v-1.05c-1.03,.08-2.07,.14-3.01,.18-.05-.25-.16-.64-.29-.88,2.37-.13,5.26-.41,6.91-.78l.59,.91c-.87,.19-1.96,.33-3.13,.46v1.16h3.4v.93h-3.4v1h3.11v4.73h-3.11v.97h3.14v.91h-3.14v1.26c1.04-.09,2.13-.21,3.21-.33v.06c1.38-1.88,1.81-4.45,1.96-7.43h-1.88v-1.12h1.91c.03-1.11,.03-2.28,.03-3.49h1.12c0,1.2,0,2.38-.03,3.49h3.4Zm-12.81,2.9h2.02v-1.15h-2.02v1.15Zm2.02,1.94v-1.16h-2.02v1.16h2.02Zm1.07-3.09v1.15h2.1v-1.15h-2.1Zm2.1,1.93h-2.1v1.16h2.1v-1.16Z"/><path class="cls-1" d="M74.42,106.54v-1.96h1.73v1.96h-1.73Z"/><path class="cls-1" d="M112.58,101.93c-.34,2.41-.92,4.59-1.83,6.36,.74,1.27,1.65,2.33,2.76,3-.29,.22-.67,.7-.88,1.02-1.01-.7-1.86-1.67-2.55-2.87-.82,1.23-1.83,2.21-3.11,2.87-.19-.3-.56-.72-.87-.97l.16-.08h-.99v-.72h-3.19v1h-1.04v-5.16c-.21,1.77-.64,3.62-1.51,5.05-.19-.22-.66-.57-.9-.7,1.36-2.33,1.51-5.55,1.51-7.87v-3.92c1.96-.21,4.21-.59,5.5-1.02l.92,.86c-1.44,.46-3.48,.78-5.31,.99v.97h5.08v3.85c1.09-1.66,1.68-4.17,2-6.82l1.19,.18c-.15,.99-.32,1.96-.53,2.88h4.44v1.1h-.85Zm-6.24,9.29c1.28-.67,2.31-1.69,3.11-2.96-.59-1.29-1.08-2.76-1.44-4.33-.27,.64-.56,1.21-.91,1.74-.19-.22-.66-.65-.93-.83l.13-.19h-5.1c-.02,.46-.06,.96-.11,1.45h5.26v5.13Zm-5.1-9.51v1.15c0,.25,0,.51-.02,.8h4.02v-1.95h-4.01Zm4.02,7.84v-2.49h-3.19v2.49h3.19Zm3.43-7.62l-.05,.18c.34,1.77,.8,3.46,1.46,4.92,.66-1.47,1.12-3.19,1.41-5.1h-2.82Z"/><path class="cls-1" d="M141.31,107.75s-.01,.33-.05,.46c-.19,2.23-.4,3.17-.78,3.54-.27,.27-.59,.37-1.06,.4-.4,.03-1.25,.02-2.12-.03-.02-.32-.18-.73-.35-1.02,.87,.08,1.75,.1,2.05,.1s.45-.02,.58-.14c.24-.21,.42-.86,.56-2.38h-3.67c.19-.94,.42-2.36,.56-3.49h3.18v-1.67h-2.68v-.19c-.58,.3-1.17,.56-1.78,.75-.13-.25-.41-.67-.64-.88,1.08-.32,2.18-.84,3.16-1.5-.48-.45-1.2-1-1.81-1.37l.69-.65c.66,.38,1.44,.94,1.91,1.42,.61-.51,1.14-1.08,1.54-1.69h-3.72v-.97h4.34l.21-.05,.74,.38c-.71,1.59-1.94,2.85-3.37,3.81h2.48v3.54h-3.38c-.08,.56-.16,1.13-.24,1.64h3.66Zm7.05-.43c-.45,1.16-1.17,2.12-2.07,2.87,.85,.53,1.62,1,2.16,1.4l-.59,.76c-.58-.43-1.43-.99-2.36-1.56-1.09,.72-2.34,1.21-3.67,1.54-.11-.27-.34-.67-.54-.88,1.17-.25,2.31-.67,3.29-1.24-.87-.51-1.75-1.04-2.53-1.47l.58-.65c.85,.45,1.84,1.02,2.79,1.56,.61-.49,1.14-1.05,1.54-1.71h-4.91v-.86h5.47l.19-.05,.66,.27Zm1.19-7.25c-.66,.62-1.52,1.27-2.26,1.75,.85,.49,1.76,.88,2.74,1.13-.26,.22-.54,.64-.72,.93-.82-.26-1.59-.57-2.29-.97v2.12c0,.35,.03,.46,.27,.46h1.19c.21,0,.56-.02,.77-.06,0,.25,.03,.61,.06,.84-.18,.06-.5,.06-.82,.06h-1.31c-.98,0-1.17-.38-1.17-1.32v-1.55h-2.18v.32c0,1.02-.34,2.2-1.75,3.01-.16-.21-.54-.59-.77-.73,1.27-.69,1.49-1.55,1.49-2.31v-1.24h3.56c-1.65-1.1-2.98-2.61-3.82-4.43l.95-.29c.32,.68,.74,1.32,1.25,1.93,.69-.56,1.54-1.31,2.02-1.85l.88,.62c-.69,.65-1.59,1.34-2.31,1.85,.34,.35,.74,.67,1.17,.97,.72-.52,1.64-1.29,2.16-1.85l.88,.6Z"/><path class="cls-1" d="M179.8,97.82c-.02,.57-.03,1.37-.11,2.31,.24,1.9,1.2,8.56,6.86,11.06-.34,.27-.69,.67-.86,1-4.01-1.86-5.72-5.8-6.49-8.76-.74,3.19-2.44,6.76-6.35,8.83-.21-.32-.59-.69-.96-.92,6.65-3.35,6.56-11.09,6.61-13.51h1.31Z"/><path class="cls-1" d="M211.04,103.59c-.26,1.86-.75,4.56-1.41,6.25l-1.19-.49c.69-1.63,1.22-4.11,1.44-5.98l1.15,.22Zm2.6-1.42v7.86c0,.73,.19,.88,1.11,.88h3.06c.99,0,1.14-.56,1.27-3.3,.29,.22,.79,.43,1.12,.53-.18,3.01-.55,3.89-2.33,3.89h-3.22c-1.73,0-2.21-.43-2.21-2.01v-7.84h1.2Zm.34-3.86c1.49,1.02,3.4,2.52,4.31,3.52l-.85,.88c-.88-.99-2.74-2.55-4.25-3.62l.79-.78Zm6.97,4.64c.93,1.9,1.81,4.33,2.15,5.98l-1.17,.46c-.32-1.64-1.19-4.14-2.09-6.01l1.11-.43Z"/></g></g></g></svg>