<svg xmlns="http://www.w3.org/2000/svg" width="65.455" height="64" viewBox="0 0 65.455 64">
  <path id="MaterialSymbolsTipsAndUpdatesOutline" d="M61.136,29.091l-1.818-4-4-1.818,4-1.818,1.818-4,1.818,4,4,1.818-4,1.818ZM52.409,17.455l-2.764-5.964L43.682,8.727l5.964-2.764L52.409,0l2.764,5.964,5.964,2.764-5.964,2.764ZM23.318,64A5.835,5.835,0,0,1,17.5,58.182H29.136A5.83,5.83,0,0,1,23.318,64ZM11.682,55.273V49.455H34.955v5.818Zm.727-8.727a22.278,22.278,0,0,1-7.962-8A21.164,21.164,0,0,1,1.5,27.636,21.033,21.033,0,0,1,7.865,12.183,21.033,21.033,0,0,1,23.318,5.818a21.033,21.033,0,0,1,15.453,6.365,21.033,21.033,0,0,1,6.365,15.453,21.18,21.18,0,0,1-2.944,10.909,22.3,22.3,0,0,1-7.965,8Zm1.745-5.818H32.482a16.128,16.128,0,0,0,5.053-5.745,15.648,15.648,0,0,0,1.783-7.345,15.439,15.439,0,0,0-4.655-11.345,15.439,15.439,0,0,0-11.345-4.655,15.439,15.439,0,0,0-11.345,4.655A15.439,15.439,0,0,0,7.318,27.636,15.648,15.648,0,0,0,9.1,34.982,16.128,16.128,0,0,0,14.155,40.727ZM23.318,40.727Z" transform="translate(-1.5)"/>
</svg>
