<?xml version="1.0" encoding="UTF-8"?><svg id="_層_2" xmlns="http://www.w3.org/2000/svg" viewBox="0 0 566.93 200.27"><defs><style>.cls-1{fill:#f05a1e;}</style></defs><g id="Layer_1"><path id="Mio_Slogan:_all_about_you" class="cls-1" d="M393.63,170.99c0,5.29,.02,10.59-.01,15.88-.01,2.01-.36,3.98-1.2,5.83-1.01,2.18-2.68,3.72-4.8,4.78-1.65,.82-3.39,1.36-5.2,1.73-5.01,1.01-10.07,1.07-15.15,1.06-.45,0-.6-.17-.6-.61,.02-1.32,.02-2.64,0-3.96-.01-.52,.18-.69,.69-.7,2.98-.08,5.96-.12,8.93-.31,1.81-.12,3.63-.38,5.4-.76,2.28-.49,4.13-1.67,5.07-3.94,.49-1.2,.69-2.46,.71-3.75,0-.52-.34-.47-.67-.38-.73,.2-1.45,.43-2.18,.63-3.02,.82-6.09,.88-9.18,.53-1.38-.16-2.74-.39-4.05-.9-2.24-.87-3.8-2.39-4.64-4.66-.71-1.93-.99-3.92-1-5.95-.04-7.1-.02-14.2-.04-21.3,0-.52,.15-.68,.68-.67,1.59,.03,3.18,.01,4.77,.01q.77,0,.77,.75c0,6.78,0,13.55,0,20.33,0,1.36,.09,2.7,.55,4,.56,1.59,1.69,2.53,3.3,2.86,1.09,.22,2.21,.39,3.31,.42,2.04,.06,4.07-.17,6.07-.6,.6-.13,1.19-.27,1.8-.36,.38-.06,.53-.27,.53-.62,0-.18,0-.36,0-.54,0-8.53,0-17.06-.01-25.58,0-.55,.18-.67,.68-.66,1.59,.03,3.18,0,4.77,0,.75,0,.75,0,.75,.74,0,5.56,0,11.13,0,16.69h-.04Zm-171.57-17.85c0-3.92-.01-7.84,0-11.76,0-.51-.17-.66-.65-.66-1.57,.02-3.14,0-4.72,0q-.85,0-.85,.85c0,14.62,0,29.23,0,43.85,0,.16,0,.33,0,.49-.02,.31,.11,.45,.44,.48,2.03,.19,4.06,.43,6.09,.58,3.89,.28,7.79,.46,11.68-.04,1.67-.21,3.28-.66,4.8-1.39,2.03-.98,3.59-2.45,4.55-4.51,.79-1.69,1.14-3.5,1.16-5.35,.04-3.52,.02-7.05,.02-10.57,0-1.95-.3-3.84-1.06-5.64-.85-2.03-2.28-3.52-4.18-4.58-2.07-1.15-4.35-1.63-6.67-1.81-2.72-.21-5.45-.18-8.14,.38-.77,.16-1.55,.31-2.41,.49-.02-.29-.06-.55-.06-.81Zm0,6.75c0-.7,.11-.8,.76-.94,3.28-.7,6.59-.8,9.91-.52,1.7,.14,3.29,.67,4.37,2.14,.76,1.04,1.16,2.26,1.18,3.49,.07,4.12,.09,8.24-.03,12.35-.05,1.76-.7,3.44-2.39,4.36-.85,.46-1.82,.81-2.78,.95-2.42,.35-4.86,.27-7.3,.12-.96-.06-1.91-.08-2.87-.17-.86-.08-.86-.12-.86-.96,0-3.45,0-6.9,0-10.35,0-3.49,0-6.97,0-10.46Zm-15.14,15.17c0-3.23,.01-6.47,0-9.7-.01-2.03-.25-4.02-1.04-5.92-.82-1.98-2.2-3.46-4.03-4.49-2.29-1.29-4.83-1.82-7.42-1.88-2.47-.06-4.94,.1-7.41,.25-1.24,.08-2.46,.34-3.69,.55-.78,.13-.79,.16-.79,.94,0,1.26,0,2.53,0,3.79,0,.64,.08,.67,.69,.55,.88-.18,1.77-.37,2.66-.46,1.72-.16,3.45-.32,5.18-.36,2.07-.05,4.15,0,6.1,.89,1.48,.68,2.48,1.76,3.04,3.32,.47,1.33,.51,2.68,.51,4.06,0,.78,0,.75-.8,.73-3.61-.08-7.22-.21-10.83-.18-1.92,.01-3.76,.6-5.42,1.62-2.07,1.28-3.43,3.11-3.82,5.51-.24,1.45-.29,2.95-.23,4.42,.09,2.22,.88,4.19,2.57,5.72,1.57,1.43,3.49,2.19,5.54,2.47,1.76,.24,3.56,.32,5.34,.32,2.77,0,5.44-.62,7.99-1.7,.5-.21,.65-.13,.78,.37,.2,.81,.23,.8,1.06,.8,1.07,0,2.13,0,3.2,0q.83,0,.83-.81c0-3.6,0-7.19,0-10.79h0Zm-6.2,4.73c0,.33-.05,.53-.42,.69-1.18,.51-2.41,.81-3.67,1.05-1.86,.36-3.74,.32-5.61,.24-1.13-.04-2.21-.33-3.2-.89-1.23-.69-1.91-1.78-2.01-3.2-.07-1.03-.02-2.04,.44-3.01,.53-1.11,1.41-1.78,2.53-2.12,.85-.26,1.76-.48,2.64-.48,2.96,0,5.92,.12,8.88,.18,.4,0,.42,.24,.42,.54,0,1.19,0,2.39,0,3.58,0,1.14,0,2.28,0,3.41Zm-97.97-20.66c.87-.15,1.73-.36,2.61-.44,1.72-.16,3.45-.32,5.18-.37,2.09-.06,4.19,0,6.15,.89,1.47,.67,2.46,1.74,3.02,3.27,.5,1.36,.52,2.75,.52,4.16,0,.69-.02,.69-.7,.67-2.98-.1-5.96-.2-8.94-.27-2.2-.05-4.35,.23-6.38,1.15-3.08,1.4-4.73,3.89-5.09,7.16-.21,1.91-.22,3.87,.46,5.77,.64,1.77,1.7,3.16,3.27,4.15,1.76,1.11,3.73,1.61,5.77,1.81,4.08,.4,8.08,.03,11.89-1.59,.56-.24,.74-.13,.84,.42,.11,.57,.42,.8,1.06,.76,1.08-.07,2.17-.02,3.25-.02q.77,0,.77-.76c0-6.61,0-13.22,0-19.84,0-1.06-.08-2.13-.18-3.19-.33-3.36-1.77-6.07-4.73-7.83-2.23-1.32-4.74-1.79-7.28-1.98-3.33-.25-6.64,.07-9.93,.55-.61,.09-1.2,.23-1.81,.34-.35,.06-.47,.24-.46,.6,.02,.9,0,1.81,0,2.71,0,.63,0,1.26,0,1.95,.28-.03,.49-.04,.7-.08Zm17.48,20.71c0,.32-.07,.5-.41,.65-1.18,.51-2.41,.81-3.67,1.05-1.94,.38-3.88,.33-5.82,.23-1.11-.06-2.15-.38-3.12-.94-.97-.57-1.61-1.43-1.8-2.51-.31-1.75-.19-3.46,1.21-4.8,.7-.67,1.57-1.03,2.49-1.21,2.27-.46,4.56-.26,6.85-.19,1.24,.03,2.49,.12,3.73,.15,.4,0,.54,.15,.53,.54-.02,1.19,0,2.38,0,3.57,0,1.16,0,2.31,0,3.47Zm311.89-9.7c0-1.82,.02-3.65,0-5.47-.02-1.47-.28-2.89-.75-4.29-.78-2.31-2.25-4.03-4.34-5.24-2.36-1.37-4.98-1.9-7.64-2.04-2.03-.11-4.07,.05-6.1,.16-1.91,.09-3.72,.6-5.46,1.39-1.88,.85-3.42,2.1-4.48,3.91-1.07,1.84-1.53,3.84-1.56,5.93-.05,3.74-.04,7.48,0,11.22,.02,1.74,.37,3.43,1.07,5.03,.89,2.03,2.36,3.51,4.29,4.54,2.2,1.18,4.6,1.68,7.05,1.85,3.58,.25,7.14,.17,10.59-1.01,2.22-.76,4.13-1.95,5.46-3.94,1.25-1.87,1.78-3.97,1.86-6.18,.06-1.95,.01-3.9,.01-5.85h.01Zm-6.28,5.65c-.12,1.88-.75,3.6-2.4,4.75-1.06,.74-2.27,1.07-3.53,1.22-1.92,.24-3.86,.26-5.78,0-2.13-.29-4.06-.97-5.19-3-.55-.99-.9-2.07-.92-3.18-.06-3.72-.1-7.44,.02-11.16,.06-1.89,.77-3.63,2.44-4.77,1.11-.76,2.38-1.15,3.7-1.21,1.85-.09,3.72-.14,5.57,0,2.13,.16,4.04,.92,5.15,2.95,.62,1.14,.94,2.38,.97,3.67,.05,1.75,.01,3.5,.01,5.25h-.02c0,1.82,.09,3.65-.03,5.47Zm-143.86-5.63c0-2.01,.03-4.01,0-6.02-.03-1.45-.32-2.87-.86-4.21-.84-2.08-2.26-3.7-4.23-4.81-2.33-1.32-4.88-1.87-7.49-2.02-2.03-.12-4.07,.06-6.1,.13-1.73,.06-3.38,.51-4.98,1.14-2.11,.83-3.88,2.12-5.06,4.12-1.11,1.88-1.57,3.95-1.6,6.1-.05,3.45-.07,6.9,0,10.35,.03,1.41,.24,2.84,.54,4.22,.37,1.66,1.2,3.12,2.42,4.33,2.12,2.1,4.81,2.98,7.66,3.41,1.42,.21,2.87,.28,4.31,.31,3.46,.06,6.85-.3,9.98-1.92,1.77-.91,3.17-2.23,4.09-4.03,.92-1.82,1.32-3.76,1.34-5.79,.01-1.77,0-3.54,0-5.31h-.01Zm-24.14-4.74c.02-1.52,.29-2.99,1.1-4.3,.67-1.08,1.65-1.78,2.86-2.18,2.66-.87,5.39-.74,8.1-.48,1.65,.16,3.2,.72,4.31,2.09,.67,.83,1.04,1.78,1.29,2.8,.4,1.6,.31,3.23,.32,4.85,.01,2.24,0,4.48-.03,6.72-.02,1.48-.3,2.91-1.1,4.18-.82,1.3-2.06,2.03-3.53,2.38-2.42,.58-4.87,.58-7.32,.25-2.05-.27-3.92-.98-5-2.95-.66-1.21-.97-2.52-.99-3.89-.02-1.64,0-3.29,0-4.93h-.01c0-1.52-.01-3.04,0-4.55Zm59.96-11.09c0-.77,0-.77-.78-.77-1.57,0-3.14,.02-4.72-.01-.53-.01-.7,.13-.7,.69,.02,8.53,.01,17.06,.01,25.59,0,.18,0,.36,0,.54-.02,.33-.17,.52-.52,.58-.6,.1-1.2,.23-1.8,.36-1.98,.44-3.99,.65-6.01,.61-1.13-.03-2.26-.2-3.37-.42-1.61-.32-2.75-1.27-3.3-2.85-.46-1.3-.55-2.64-.55-4,0-6.81-.01-13.62,0-20.44,0-.53-.15-.67-.67-.66-1.64,.03-3.29,.03-4.93,0-.47,0-.62,.14-.62,.61,.02,7.21,0,14.42,.05,21.63,.02,2.24,.35,4.46,1.34,6.51,.78,1.62,2.01,2.78,3.64,3.55,1.69,.8,3.51,1.1,5.34,1.25,4.11,.34,8.14,0,11.97-1.73,.23-.11,.41-.1,.49,.21,.04,.17,.17,.33,.19,.5,.04,.48,.31,.57,.73,.57,1.17-.02,2.35,0,3.52,0,.71,0,.71,0,.71-.72,0-5.28,0-10.55,0-15.83,0-5.26,0-10.52,0-15.78Zm150.13-.1c0-.51-.13-.7-.67-.69-1.61,.03-3.22,.01-4.82,.01-.71,0-.71,0-.71,.71,0,8.49,0,16.98,0,25.47,0,.2,0,.4,0,.6-.01,.35-.16,.55-.54,.61-.6,.09-1.19,.28-1.8,.35-1.89,.23-3.79,.54-5.69,.6-1.3,.04-2.63-.16-3.9-.46-1.49-.35-2.56-1.31-3.08-2.82-.46-1.34-.54-2.71-.54-4.11,0-6.76-.01-13.51,0-20.27,0-.53-.12-.72-.68-.71-1.62,.04-3.25,.03-4.88,0-.54-.01-.66,.18-.66,.68,.02,6.86,0,13.73,.02,20.59,0,2.28,.22,4.54,1.04,6.7,.6,1.61,1.58,2.89,3.03,3.82,1.95,1.24,4.16,1.6,6.39,1.78,4.07,.33,8.07-.02,11.86-1.73,.1-.05,.34,.07,.44,.17,.12,.14,.21,.35,.23,.54,.03,.49,.32,.57,.73,.56,1.17-.02,2.35,0,3.52,0q.71,0,.71-.72c0-5.28,0-10.55,0-15.83,0-5.29,0-10.59,0-15.88Zm-138.83,14.77v8.51c0,1.27,.14,2.51,.54,3.73,.62,1.89,1.71,3.38,3.41,4.43,1.59,.99,3.37,1.44,5.19,1.48,2.05,.05,4.11-.15,6.16-.24,.35-.01,.47-.18,.47-.51,0-1.26,0-2.53,0-3.79,0-.38-.15-.47-.54-.43-1.94,.16-3.89,.34-5.82-.13-.98-.24-1.83-.69-2.44-1.55-.7-.98-.77-2.08-.77-3.19-.01-6.05,0-12.1-.02-18.16,0-.56,.19-.71,.73-.7,2.71,.02,5.42,0,8.13,.02,.52,0,.74-.12,.72-.69-.04-1.17-.04-2.35,0-3.52,.02-.54-.12-.71-.68-.71-2.73,.03-5.46,.01-8.18,.01-.67,0-.69-.02-.69-.71,0-2.57,0-5.13,0-7.7,0-.42-.14-.58-.56-.58-1.25,.01-2.49,.02-3.74,0-.36,0-.51,.12-.56,.48-.24,1.75-.51,3.5-.76,5.25-.12,.86-.26,1.71-.36,2.57-.06,.53-.3,.71-.85,.7-1.3-.04-2.6,0-3.9-.02-.46,0-.59,.15-.58,.59,.02,1.26,.02,2.53,0,3.79,0,.4,.13,.54,.53,.53,1.3-.02,2.6,.02,3.9-.02,.55-.02,.71,.14,.7,.7-.03,3.29-.01,6.58-.01,9.86h0Zm-177.82,16.95c0,.54,.14,.73,.7,.72,1.59-.03,3.18-.03,4.77,0,.5,0,.7-.12,.7-.66-.01-14.87-.01-29.74,0-44.61,0-.54-.21-.68-.71-.67-1.54,.02-3.07,0-4.61,0q-.84,0-.84,.83c0,7.37,0,14.74,0,22.11s0,14.85-.01,22.28Zm-9.56-44.49c0-.71-.01-.73-.73-.73-1.55,0-3.11,0-4.66,0-.75,0-.76,0-.76,.75,0,3.4,0,6.79,0,10.19,0,11.4,0,22.8,0,34.21q0,.77,.78,.77c1.52,0,3.04,0,4.55,0q.81,0,.81-.8c0-7.39,0-14.78,0-22.17,0-7.41,0-14.82,0-22.23Z"/><path id="Mio_Logo" class="cls-1" d="M465.43,8.72c-32.9,0-59.49,24.92-59.49,55.62s26.6,55.61,59.49,55.61,59.47-24.91,59.47-55.61-26.61-55.62-59.47-55.62Zm0,89.82c-20.23,0-36.59-15.31-36.59-34.21s16.36-34.19,36.59-34.19,36.6,15.3,36.6,34.19-16.39,34.21-36.6,34.21Zm-73-.88V40.72c0-2.88-2.32-5.19-5.19-5.19h-11.19c-2.89,0-5.17,2.31-5.17,5.19v56.94c0,2.87,2.28,5.16,5.17,5.16h11.19c2.87,0,5.19-2.29,5.19-5.16Zm-90.25-45.03c-50.36,10.18-107.22,21.47-122.04,23.89-15.29,2.44-14.57,.27-7.71-36.75,5.7-30.64-19.24-36.3-62.58-5.19L3.39,104.99c-11.28,8.08,8,19.46,22.96,11.04,22.85-12.87,100.16-63.21,106.42-66.83,13.24-7.59,21.69-.7,14.3,26.67-5.11,18.86,5.51,25.21,22.83,23.03,20.4-2.58,133.26-27.45,144.81-28.85,16.53-2.04,19.8,5.86,19.14,14.87-.51,6.64-1.77,19.27,6.96,23.64,4.16,2.11,12.16,.91,12.16-3.98v-33.49c0-29.41-23.1-24.01-50.79-18.46Zm86.56-26.8c2.85,0,5.16-2.25,5.16-5.13V5.14C393.91,2.28,391.6,0,388.75,0h-14.21c-2.88,0-5.19,2.28-5.19,5.14v15.55c0,2.88,2.32,5.13,5.19,5.13h14.21ZM543.79,0V2.55h-7.21V21.41h-2.93V2.55h-7.21V0h17.35Zm2.59,0h4.15l6.15,18.1,6.11-18.1h4.12V21.41h-2.77V8.77c0-.44,0-1.16,.03-2.17,.02-1.01,.03-2.09,.03-3.25l-6.11,18.05h-2.87l-6.17-18.05v.66c0,.52,.01,1.32,.04,2.4,.03,1.07,.04,1.86,.04,2.37v12.63h-2.77V0Z"/></g></svg>