<svg xmlns="http://www.w3.org/2000/svg" width="62" height="19" viewBox="0 0 62 19">
  <g id="Union_3" data-name="Union 3" fill="none">
    <path d="M46,0,62,9.5,46,19ZM23,0,39,9.5,23,19ZM0,0,17,9.5,0,19Z" stroke="none"/>
    <path d="M 1 1.704404830932617 L 1 17.29557228088379 L 14.95014953613281 9.500357627868652 L 1 1.704404830932617 M 46.99990081787109 1.756765365600586 L 46.99990081787109 17.24322319030762 L 60.04135894775391 9.500361442565918 L 46.99990081787109 1.756765365600586 M 24.00040054321289 1.756818771362305 L 24.00040054321289 17.24316596984863 L 37.04103469848633 9.500358581542969 L 24.00040054321289 1.756818771362305 M 0 0 L 17.00010299682617 9.500400543212891 L 0 18.99990081787109 L 0 0 Z M 23.00040054321289 0 L 38.99970245361328 9.500400543212891 L 23.00040054321289 18.99990081787109 L 23.00040054321289 0 Z M 45.99990081787109 0 L 62.00010299682617 9.500400543212891 L 45.99990081787109 18.99990081787109 L 45.99990081787109 0 Z" stroke="none" fill="#f3c300"/>
  </g>
</svg>
