<?xml version="1.0" encoding="UTF-8"?><svg id="_層_2" xmlns="http://www.w3.org/2000/svg" viewBox="0 0 1592.49 1000.55"><defs><style>.cls-1{fill:#05141f;}.cls-2{fill:none;stroke:#05141f;stroke-miterlimit:10;}</style></defs><g id="_層_1-2"><path class="cls-1" d="M1282.26,5.39h72.42l12.1-4.34h-72.4c-4.03,1.45-8.06,2.9-12.12,4.34Z"/><path class="cls-1" d="M1255.57,5.39h16.31c4.06-1.44,8.12-2.89,12.17-4.34h-16.54l-11.94,4.34Z"/><path class="cls-1" d="M1237.63,5.39h7.67c3.98-1.45,7.96-2.89,11.94-4.34h-7.67l-11.94,4.34Z"/><path class="cls-1" d="M1239.29,1.05h-38.38l-17.39,4.34h43.83l11.94-4.34Z"/><rect class="cls-1" x="1479.27" y="-106.78" width="6.44" height="220" transform="translate(1485.71 -1479.27) rotate(90)"/><g><g><g><polygon class="cls-1" points="1563.32 767.14 1563.32 772.69 1558.51 769.92 1553.71 767.14 1558.51 764.37 1563.32 761.59 1563.32 767.14"/><polygon class="cls-1" points="1563.32 743.33 1563.32 748.88 1558.51 746.1 1553.71 743.33 1558.51 740.55 1563.32 737.78 1563.32 743.33"/><polygon class="cls-1" points="1563.32 719.51 1563.32 725.06 1558.51 722.29 1553.71 719.51 1558.51 716.74 1563.32 713.97 1563.32 719.51"/><polygon class="cls-1" points="1563.32 695.7 1563.32 701.25 1558.51 698.47 1553.71 695.7 1558.51 692.92 1563.32 690.15 1563.32 695.7"/></g><rect class="cls-1" x="1584.95" y="688.17" width="6.44" height="312.37"/></g><g><g><path class="cls-1" d="M1495.79,922.69c2.06,0,2.07-3.21,0-3.21s-2.07,3.21,0,3.21h0Z"/><path class="cls-1" d="M1505.15,922.69c2.06,0,2.07-3.21,0-3.21s-2.07,3.21,0,3.21h0Z"/><path class="cls-1" d="M1514.52,922.69c2.06,0,2.07-3.21,0-3.21s-2.07,3.21,0,3.21h0Z"/><path class="cls-1" d="M1523.62,922.69c2.06,0,2.07-3.21,0-3.21s-2.07,3.21,0,3.21h0Z"/><path class="cls-1" d="M1532.99,922.69c2.06,0,2.07-3.21,0-3.21s-2.07,3.21,0,3.21h0Z"/><path class="cls-1" d="M1542.1,922.69c2.06,0,2.07-3.21,0-3.21s-2.07,3.21,0,3.21h0Z"/><path class="cls-1" d="M1550.95,922.69c2.06,0,2.07-3.21,0-3.21s-2.07,3.21,0,3.21h0Z"/></g><g><path class="cls-1" d="M1495.79,933.43c2.06,0,2.07-3.21,0-3.21s-2.07,3.21,0,3.21h0Z"/><path class="cls-1" d="M1505.15,933.43c2.06,0,2.07-3.21,0-3.21s-2.07,3.21,0,3.21h0Z"/><path class="cls-1" d="M1514.52,933.43c2.06,0,2.07-3.21,0-3.21s-2.07,3.21,0,3.21h0Z"/><path class="cls-1" d="M1523.62,933.43c2.06,0,2.07-3.21,0-3.21s-2.07,3.21,0,3.21h0Z"/><path class="cls-1" d="M1532.99,933.43c2.06,0,2.07-3.21,0-3.21s-2.07,3.21,0,3.21h0Z"/><path class="cls-1" d="M1542.1,933.43c2.06,0,2.07-3.21,0-3.21s-2.07,3.21,0,3.21h0Z"/><path class="cls-1" d="M1550.95,933.43c2.06,0,2.07-3.21,0-3.21s-2.07,3.21,0,3.21h0Z"/></g><g><path class="cls-1" d="M1495.79,944.18c2.06,0,2.07-3.21,0-3.21s-2.07,3.21,0,3.21h0Z"/><path class="cls-1" d="M1505.15,944.18c2.06,0,2.07-3.21,0-3.21s-2.07,3.21,0,3.21h0Z"/><path class="cls-1" d="M1514.52,944.18c2.06,0,2.07-3.21,0-3.21s-2.07,3.21,0,3.21h0Z"/><path class="cls-1" d="M1523.62,944.18c2.06,0,2.07-3.21,0-3.21s-2.07,3.21,0,3.21h0Z"/><path class="cls-1" d="M1532.99,944.18c2.06,0,2.07-3.21,0-3.21s-2.07,3.21,0,3.21h0Z"/><path class="cls-1" d="M1542.1,944.18c2.06,0,2.07-3.21,0-3.21s-2.07,3.21,0,3.21h0Z"/><path class="cls-1" d="M1550.95,944.18c2.06,0,2.07-3.21,0-3.21s-2.07,3.21,0,3.21h0Z"/></g><g><path class="cls-1" d="M1496.04,956.39c2.06,0,2.07-3.21,0-3.21s-2.07,3.21,0,3.21h0Z"/><path class="cls-1" d="M1505.41,956.39c2.06,0,2.07-3.21,0-3.21s-2.07,3.21,0,3.21h0Z"/><path class="cls-1" d="M1514.77,956.39c2.06,0,2.07-3.21,0-3.21s-2.07,3.21,0,3.21h0Z"/><path class="cls-1" d="M1523.88,956.39c2.06,0,2.07-3.21,0-3.21s-2.07,3.21,0,3.21h0Z"/><path class="cls-1" d="M1533.24,956.39c2.06,0,2.07-3.21,0-3.21s-2.07,3.21,0,3.21h0Z"/><path class="cls-1" d="M1542.35,956.39c2.06,0,2.07-3.21,0-3.21s-2.07,3.21,0,3.21h0Z"/><path class="cls-1" d="M1551.21,956.39c2.06,0,2.07-3.21,0-3.21s-2.07,3.21,0,3.21h0Z"/></g><g><path class="cls-1" d="M1496.04,967.13c2.06,0,2.07-3.21,0-3.21s-2.07,3.21,0,3.21h0Z"/><path class="cls-1" d="M1505.41,967.13c2.06,0,2.07-3.21,0-3.21s-2.07,3.21,0,3.21h0Z"/><path class="cls-1" d="M1514.77,967.13c2.06,0,2.07-3.21,0-3.21s-2.07,3.21,0,3.21h0Z"/><path class="cls-1" d="M1523.88,967.13c2.06,0,2.07-3.21,0-3.21s-2.07,3.21,0,3.21h0Z"/><path class="cls-1" d="M1533.24,967.13c2.06,0,2.07-3.21,0-3.21s-2.07,3.21,0,3.21h0Z"/><path class="cls-1" d="M1542.35,967.13c2.06,0,2.07-3.21,0-3.21s-2.07,3.21,0,3.21h0Z"/><path class="cls-1" d="M1551.21,967.13c2.06,0,2.07-3.21,0-3.21s-2.07,3.21,0,3.21h0Z"/></g><g><path class="cls-1" d="M1496.04,977.88c2.06,0,2.07-3.21,0-3.21s-2.07,3.21,0,3.21h0Z"/><path class="cls-1" d="M1505.41,977.88c2.06,0,2.07-3.21,0-3.21s-2.07,3.21,0,3.21h0Z"/><path class="cls-1" d="M1514.77,977.88c2.06,0,2.07-3.21,0-3.21s-2.07,3.21,0,3.21h0Z"/><path class="cls-1" d="M1523.88,977.88c2.06,0,2.07-3.21,0-3.21s-2.07,3.21,0,3.21h0Z"/><path class="cls-1" d="M1533.24,977.88c2.06,0,2.07-3.21,0-3.21s-2.07,3.21,0,3.21h0Z"/><path class="cls-1" d="M1542.35,977.88c2.06,0,2.07-3.21,0-3.21s-2.07,3.21,0,3.21h0Z"/><path class="cls-1" d="M1551.21,977.88c2.06,0,2.07-3.21,0-3.21s-2.07,3.21,0,3.21h0Z"/></g></g><polyline class="cls-2" points="1574.28 882.12 1574.28 998.72 0 998.72"/></g></g></svg>