<?xml version="1.0" encoding="UTF-8"?><svg id="_層_2" xmlns="http://www.w3.org/2000/svg" viewBox="0 0 1591.39 312.37"><defs><style>.cls-1{fill:#05141f;}.cls-2{fill:none;stroke:#05141f;stroke-miterlimit:10;}</style></defs><g id="_層_1-2"><g><g><g><polygon class="cls-1" points="1563.32 78.97 1563.32 84.52 1558.51 81.74 1553.71 78.97 1558.51 76.2 1563.32 73.42 1563.32 78.97"/><polygon class="cls-1" points="1563.32 55.15 1563.32 60.7 1558.51 57.93 1553.71 55.15 1558.51 52.38 1563.32 49.61 1563.32 55.15"/><polygon class="cls-1" points="1563.32 31.34 1563.32 36.89 1558.51 34.11 1553.71 31.34 1558.51 28.57 1563.32 25.79 1563.32 31.34"/><polygon class="cls-1" points="1563.32 7.53 1563.32 13.07 1558.51 10.3 1553.71 7.53 1558.51 4.75 1563.32 1.98 1563.32 7.53"/></g><rect class="cls-1" x="1584.95" width="6.44" height="312.37"/></g><g><g><path class="cls-1" d="M1495.79,234.51c2.06,0,2.07-3.21,0-3.21s-2.07,3.21,0,3.21h0Z"/><path class="cls-1" d="M1505.15,234.51c2.06,0,2.07-3.21,0-3.21s-2.07,3.21,0,3.21h0Z"/><path class="cls-1" d="M1514.52,234.51c2.06,0,2.07-3.21,0-3.21s-2.07,3.21,0,3.21h0Z"/><path class="cls-1" d="M1523.62,234.51c2.06,0,2.07-3.21,0-3.21s-2.07,3.21,0,3.21h0Z"/><path class="cls-1" d="M1532.99,234.51c2.06,0,2.07-3.21,0-3.21s-2.07,3.21,0,3.21h0Z"/><path class="cls-1" d="M1542.1,234.51c2.06,0,2.07-3.21,0-3.21s-2.07,3.21,0,3.21h0Z"/><path class="cls-1" d="M1550.95,234.51c2.06,0,2.07-3.21,0-3.21s-2.07,3.21,0,3.21h0Z"/></g><g><path class="cls-1" d="M1495.79,245.26c2.06,0,2.07-3.21,0-3.21s-2.07,3.21,0,3.21h0Z"/><path class="cls-1" d="M1505.15,245.26c2.06,0,2.07-3.21,0-3.21s-2.07,3.21,0,3.21h0Z"/><path class="cls-1" d="M1514.52,245.26c2.06,0,2.07-3.21,0-3.21s-2.07,3.21,0,3.21h0Z"/><path class="cls-1" d="M1523.62,245.26c2.06,0,2.07-3.21,0-3.21s-2.07,3.21,0,3.21h0Z"/><path class="cls-1" d="M1532.99,245.26c2.06,0,2.07-3.21,0-3.21s-2.07,3.21,0,3.21h0Z"/><path class="cls-1" d="M1542.1,245.26c2.06,0,2.07-3.21,0-3.21s-2.07,3.21,0,3.21h0Z"/><path class="cls-1" d="M1550.95,245.26c2.06,0,2.07-3.21,0-3.21s-2.07,3.21,0,3.21h0Z"/></g><g><path class="cls-1" d="M1495.79,256c2.06,0,2.07-3.21,0-3.21s-2.07,3.21,0,3.21h0Z"/><path class="cls-1" d="M1505.15,256c2.06,0,2.07-3.21,0-3.21s-2.07,3.21,0,3.21h0Z"/><path class="cls-1" d="M1514.52,256c2.06,0,2.07-3.21,0-3.21s-2.07,3.21,0,3.21h0Z"/><path class="cls-1" d="M1523.62,256c2.06,0,2.07-3.21,0-3.21s-2.07,3.21,0,3.21h0Z"/><path class="cls-1" d="M1532.99,256c2.06,0,2.07-3.21,0-3.21s-2.07,3.21,0,3.21h0Z"/><path class="cls-1" d="M1542.1,256c2.06,0,2.07-3.21,0-3.21s-2.07,3.21,0,3.21h0Z"/><path class="cls-1" d="M1550.95,256c2.06,0,2.07-3.21,0-3.21s-2.07,3.21,0,3.21h0Z"/></g><g><path class="cls-1" d="M1496.04,268.22c2.06,0,2.07-3.21,0-3.21s-2.07,3.21,0,3.21h0Z"/><path class="cls-1" d="M1505.41,268.22c2.06,0,2.07-3.21,0-3.21s-2.07,3.21,0,3.21h0Z"/><path class="cls-1" d="M1514.77,268.22c2.06,0,2.07-3.21,0-3.21s-2.07,3.21,0,3.21h0Z"/><path class="cls-1" d="M1523.88,268.22c2.06,0,2.07-3.21,0-3.21s-2.07,3.21,0,3.21h0Z"/><path class="cls-1" d="M1533.24,268.22c2.06,0,2.07-3.21,0-3.21s-2.07,3.21,0,3.21h0Z"/><path class="cls-1" d="M1542.35,268.22c2.06,0,2.07-3.21,0-3.21s-2.07,3.21,0,3.21h0Z"/><path class="cls-1" d="M1551.21,268.22c2.06,0,2.07-3.21,0-3.21s-2.07,3.21,0,3.21h0Z"/></g><g><path class="cls-1" d="M1496.04,278.96c2.06,0,2.07-3.21,0-3.21s-2.07,3.21,0,3.21h0Z"/><path class="cls-1" d="M1505.41,278.96c2.06,0,2.07-3.21,0-3.21s-2.07,3.21,0,3.21h0Z"/><path class="cls-1" d="M1514.77,278.96c2.06,0,2.07-3.21,0-3.21s-2.07,3.21,0,3.21h0Z"/><path class="cls-1" d="M1523.88,278.96c2.06,0,2.07-3.21,0-3.21s-2.07,3.21,0,3.21h0Z"/><path class="cls-1" d="M1533.24,278.96c2.06,0,2.07-3.21,0-3.21s-2.07,3.21,0,3.21h0Z"/><path class="cls-1" d="M1542.35,278.96c2.06,0,2.07-3.21,0-3.21s-2.07,3.21,0,3.21h0Z"/><path class="cls-1" d="M1551.21,278.96c2.06,0,2.07-3.21,0-3.21s-2.07,3.21,0,3.21h0Z"/></g><g><path class="cls-1" d="M1496.04,289.71c2.06,0,2.07-3.21,0-3.21s-2.07,3.21,0,3.21h0Z"/><path class="cls-1" d="M1505.41,289.71c2.06,0,2.07-3.21,0-3.21s-2.07,3.21,0,3.21h0Z"/><path class="cls-1" d="M1514.77,289.71c2.06,0,2.07-3.21,0-3.21s-2.07,3.21,0,3.21h0Z"/><path class="cls-1" d="M1523.88,289.71c2.06,0,2.07-3.21,0-3.21s-2.07,3.21,0,3.21h0Z"/><path class="cls-1" d="M1533.24,289.71c2.06,0,2.07-3.21,0-3.21s-2.07,3.21,0,3.21h0Z"/><path class="cls-1" d="M1542.35,289.71c2.06,0,2.07-3.21,0-3.21s-2.07,3.21,0,3.21h0Z"/><path class="cls-1" d="M1551.21,289.71c2.06,0,2.07-3.21,0-3.21s-2.07,3.21,0,3.21h0Z"/></g></g><polyline class="cls-2" points="1574.28 193.95 1574.28 310.55 0 310.55"/></g></g></svg>