<svg xmlns="http://www.w3.org/2000/svg" width="165.057" height="48.67" viewBox="0 0 165.057 48.67">
  <g id="Group_74" data-name="Group 74" transform="translate(0 0)">
    <path id="Path_336" data-name="Path 336" d="M82.441,0,74.753,15.7,57.461,18.268,70.017,30.432l-2.9,17.239,15.448-8.183,15.5,8.088L95.054,30.354l12.481-12.241-17.308-2.46Z" fill="#f3c300"/>
    <path id="Path_337" data-name="Path 337" d="M142.562,26.191l-11.867,1.761,8.617,8.348-1.991,11.829,10.6-5.615,10.636,5.55-2.066-11.818,8.565-8.4L153.18,26.157l-5.342-10.741Z" fill="#f3c300"/>
    <path id="Path_338" data-name="Path 338" d="M11.866,26.731,0,28.492,8.615,36.84,6.624,48.669l10.6-5.615L27.861,48.6,25.8,36.787l8.565-8.4L22.483,26.7,17.142,15.957Z" fill="#f3c300"/>
  </g>
</svg>
