<svg xmlns="http://www.w3.org/2000/svg" xmlns:xlink="http://www.w3.org/1999/xlink" width="228" height="103" viewBox="0 0 228 103">
  <defs>
    <filter id="Subtraction_1" x="0" y="0" width="228" height="103" filterUnits="userSpaceOnUse">
      <feOffset dy="8" input="SourceAlpha"/>
      <feGaussianBlur stdDeviation="8" result="blur"/>
      <feFlood flood-opacity="0.161"/>
      <feComposite operator="in" in2="blur"/>
      <feComposite in="SourceGraphic"/>
    </filter>
  </defs>
  <g transform="matrix(1, 0, 0, 1, 0, 0)" filter="url(#Subtraction_1)">
    <path id="Subtraction_1-2" data-name="Subtraction 1" d="M164,55H16A16,16,0,0,1,0,39V16A16,16,0,0,1,16,0H164a16,16,0,0,1,16,16V39a16,16,0,0,1-16,16Zm0-19a4,4,0,1,0,4,4A4,4,0,0,0,164,36ZM16,36a4,4,0,1,0,4,4A4,4,0,0,0,16,36Z" transform="translate(204 71) rotate(180)" fill="#05141f"/>
  </g>
</svg>
