<?xml version="1.0" encoding="UTF-8"?><svg id="_層_2" xmlns="http://www.w3.org/2000/svg" viewBox="0 0 655.42 170.18"><g id="Layer_1"><g><rect x="635.75" y="37.12" width="19.67" height="133.06"/><path d="M342.28,37.11v100.75c0,1.32,0,12.86-12.57,12.86h-115.84c-12.57,0-12.57-11.54-12.57-12.86V37.11H110.53V170.17h19.79V56.63h51.21v86.22c0,10.66,7.17,27.33,27.83,27.33h124.72c20.7,0,27.88-16.67,27.88-27.33,0-10.63-.02-100.98-.02-105.73h-19.66Z"/><polygon points="584.83 37.11 497.86 152.04 410.87 37.11 380.13 37.11 380.13 170.17 399.89 170.17 399.89 54.84 486.65 170.17 509.08 170.17 595.71 54.84 595.71 170.17 615.52 170.17 615.52 37.11 584.83 37.11"/><polygon points="0 0 0 56.63 70.98 56.63 70.98 170.17 90.75 170.17 90.75 37.12 19.77 37.12 19.77 19.37 655.42 19.37 655.42 0 0 0"/></g></g></svg>